<?xml version="1.0" encoding="UTF-8"?>
<svg width="1200pt" height="1200pt" version="1.1" viewBox="0 0 1200 1200" xmlns="http://www.w3.org/2000/svg">
 <g>
  <path d="m649.09 434.88c-9.1367-0.42578-18.363-0.007812-27.535 1.4648-64.262 10.133-112.73 64.164-115.96 129.24-1.2695 16.156 23.234 17.406 23.617 1.2031 2.6836-54.059 42.742-98.652 96.082-107.05h0.046876c7.4297-1.2031 15-1.5586 22.648-1.2031h0.046875c45.535 2.0312 85.395 30.234 101.52 72.781 2.5156 6.668 10.309 9.6133 16.605 6.2734 22.566-11.973 50.016-8.7422 70.066 7.6055 19.922 16.242 28.199 42.805 21.035 67.527-5.2891 15.609 18.793 22.609 22.695 6.5977 9.7891-33.77-1.5469-70.227-28.781-92.43-23.867-19.465-55.652-25.648-84.273-15.496-24.648-45.918-66.391-74.164-117.76-76.473z"/>
  <path d="m530.86 563.65c-24.523-5.9336-50.652-4.9688-75.461 3.5508-49.617 17.043-85.141 61.367-91.422 113.88-0.47266 3.1641 0.35547 6.3828 2.293 8.9219 1.9375 2.543 4.8242 4.1914 8 4.5742 3.1719 0.37891 6.3672-0.54297 8.8516-2.5547s4.0469-4.9453 4.3359-8.1289c5.2188-43.641 34.621-80.246 75.602-94.32 40.98-14.074 86.199-3.1797 116.52 28.18h-0.003906c2.1602 2.3359 5.168 3.7031 8.3477 3.793 3.1797 0.09375 6.2617-1.1016 8.5508-3.3086 2.2891-2.207 3.5938-5.2461 3.6172-8.4258 0.023437-3.1836-1.2383-6.2383-3.4961-8.4805-18.301-18.93-41.207-31.75-65.73-37.684z"/>
  <path d="m410.75 482.75c-44.668-6.2969-86.312 24.891-93.176 69.645-6.8633 44.754 23.473 87.09 67.945 94.645 3.0898 0.52734 6.2617-0.19531 8.8164-2.0078 2.5586-1.8125 4.2891-4.5664 4.8164-7.6562 0.52734-3.0859-0.19531-6.2578-2.0117-8.8164-1.8125-2.5547-4.5664-4.2891-7.6562-4.8125-31.926-5.4258-53.527-35.418-48.57-67.754 4.957-32.336 34.496-54.379 66.559-49.859 32.062 4.5195 54.422 33.906 50.371 66.371-0.46875 3.1484 0.35156 6.3516 2.2734 8.8867 1.9258 2.5352 4.793 4.1836 7.9531 4.5781 3.1562 0.39062 6.3398-0.50781 8.8281-2.4961 2.4844-1.9883 4.0625-4.8945 4.3789-8.0625 5.6094-44.93-25.859-86.363-70.527-92.664z"/>
  <path d="m298.76 447.55-16.742 16.652 25.371 25.461 16.742-16.695z" fill-rule="evenodd"/>
  <path d="m497.52 447.55-25.371 25.414 16.742 16.695 25.324-25.461z" fill-rule="evenodd"/>
  <path d="m307.39 638.37-25.371 25.414 16.742 16.695 25.371-25.461z" fill-rule="evenodd"/>
  <path d="m552.77 718.07c-3.1523-0.035156-6.1875 1.1953-8.4297 3.4102-2.2422 2.2188-3.5039 5.2422-3.5039 8.3945 0 3.1562 1.2617 6.1758 3.5039 8.3945s5.2773 3.4492 8.4297 3.4141h82.336c3.1523 0.035156 6.1914-1.1953 8.4336-3.4141 2.2383-2.2188 3.5-5.2383 3.5-8.3945 0-3.1523-1.2617-6.1758-3.5-8.3945-2.2422-2.2148-5.2812-3.4453-8.4336-3.4102z" fill-rule="evenodd"/>
  <path d="m529.48 765.3c-3.1523-0.03125-6.1875 1.1953-8.4297 3.4141-2.2422 2.2188-3.5039 5.2422-3.5039 8.3945 0 3.1523 1.2617 6.1758 3.5039 8.3945 2.2422 2.2188 5.2773 3.4492 8.4297 3.4141h117.76c3.1523 0.035157 6.1875-1.1953 8.4297-3.4141s3.5039-5.2422 3.5039-8.3945c0-3.1523-1.2617-6.1758-3.5039-8.3945s-5.2773-3.4453-8.4297-3.4141z" fill-rule="evenodd"/>
  <path d="m499.82 777.12c0 3.1328-1.2461 6.1367-3.4609 8.3516-2.2148 2.2148-5.2188 3.457-8.3477 3.457-3.1328 0-6.1367-1.2422-8.3516-3.457s-3.457-5.2188-3.457-8.3516c0-3.1289 1.2422-6.1328 3.457-8.3477 2.2148-2.2148 5.2188-3.457 8.3516-3.457 3.1289 0 6.1328 1.2422 8.3477 3.457 2.2148 2.2148 3.4609 5.2188 3.4609 8.3477z"/>
  <path d="m688.89 765.3c-3.1523-0.03125-6.1875 1.1953-8.4297 3.4141-2.2422 2.2188-3.5039 5.2422-3.5039 8.3945 0 3.1523 1.2617 6.1758 3.5039 8.3945 2.2422 2.2188 5.2773 3.4492 8.4297 3.4141h41.008c3.1523 0.035157 6.1914-1.1953 8.4297-3.4141 2.2422-2.2188 3.5039-5.2422 3.5039-8.3945 0-3.1523-1.2617-6.1758-3.5039-8.3945-2.2383-2.2188-5.2773-3.4453-8.4297-3.4141z" fill-rule="evenodd"/>
  <path d="m777.32 765.3c-3.1523-0.03125-6.1914 1.1953-8.4336 3.4141-2.2422 2.2188-3.5 5.2422-3.5 8.3945 0 3.1562 1.2578 6.1758 3.5 8.3945 2.2422 2.2188 5.2812 3.4492 8.4336 3.4141h35.102c3.1523 0.035157 6.1875-1.1953 8.4297-3.4141 2.2422-2.2188 3.5039-5.2383 3.5039-8.3945 0-3.1523-1.2617-6.1758-3.5039-8.3945-2.2422-2.2188-5.2773-3.4453-8.4297-3.4141z" fill-rule="evenodd"/>
  <path d="m694.49 729.89c0 3.1289-1.2422 6.1328-3.457 8.3477-2.2148 2.2148-5.2188 3.457-8.3516 3.457-3.1328 0-6.1328-1.2422-8.3477-3.457-2.2148-2.2148-3.4609-5.2188-3.4609-8.3477 0-3.1328 1.2461-6.1367 3.4609-8.3516 2.2148-2.2148 5.2148-3.457 8.3477-3.457 3.1328 0 6.1367 1.2422 8.3516 3.457 2.2148 2.2148 3.457 5.2188 3.457 8.3516z"/>
  <path d="m476.21 670.84c-3.1562-0.035156-6.1914 1.1953-8.4336 3.4141-2.2422 2.2148-3.5039 5.2383-3.5039 8.3945 0 3.1523 1.2617 6.1758 3.5039 8.3906 2.2422 2.2188 5.2773 3.4492 8.4336 3.4141h241.75c3.1523 0.035156 6.1875-1.1953 8.4297-3.4141 2.2422-2.2148 3.5039-5.2383 3.5039-8.3906 0-3.1562-1.2617-6.1797-3.5039-8.3945-2.2422-2.2188-5.2773-3.4492-8.4297-3.4141z" fill-rule="evenodd"/>
  <path d="m765.51 670.84c-3.1523-0.035156-6.1914 1.1953-8.4297 3.4141-2.2422 2.2148-3.5039 5.2383-3.5039 8.3945 0 3.1523 1.2617 6.1758 3.5039 8.3906 2.2383 2.2188 5.2773 3.4492 8.4297 3.4141h94.145c3.1523 0.035156 6.1875-1.1953 8.4297-3.4141 2.2422-2.2148 3.5039-5.2383 3.5039-8.3906 0-3.1562-1.2617-6.1797-3.5039-8.3945-2.2422-2.2188-5.2773-3.4492-8.4297-3.4141z" fill-rule="evenodd"/>
  <path d="m688.75 611.8c-3.1523-0.035156-6.1914 1.1953-8.4297 3.4141-2.2422 2.2188-3.5039 5.2422-3.5039 8.3945s1.2617 6.1758 3.5039 8.3945c2.2383 2.2188 5.2773 3.4453 8.4297 3.4141h35.102c3.1523 0.03125 6.1914-1.1953 8.4336-3.4141 2.2383-2.2188 3.5-5.2422 3.5-8.3945s-1.2617-6.1758-3.5-8.3945c-2.2422-2.2188-5.2812-3.4492-8.4336-3.4141z" fill-rule="evenodd"/>
  <path d="m806.84 611.8c-3.1523-0.035156-6.1875 1.1953-8.4297 3.4141s-3.5039 5.2422-3.5039 8.3945 1.2617 6.1758 3.5039 8.3945 5.2773 3.4453 8.4297 3.4141h123.66c3.1523 0.03125 6.1914-1.1953 8.4297-3.4141 2.2422-2.2188 3.5039-5.2422 3.5039-8.3945s-1.2617-6.1758-3.5039-8.3945c-2.2383-2.2188-5.2773-3.4492-8.4297-3.4141z" fill-rule="evenodd"/>
  <path d="m777.15 623.62c0 6.5195-5.2852 11.809-11.809 11.809-6.5234 0-11.809-5.2891-11.809-11.809 0-6.5234 5.2852-11.809 11.809-11.809 6.5234 0 11.809 5.2852 11.809 11.809z"/>
  <path d="m245.76 552.76v23.617h35.426v-23.617z" fill-rule="evenodd"/>
  <path d="m387.46 411.07v35.422h23.617v-35.422z" fill-rule="evenodd"/>
 </g>
</svg>
