<?xml version="1.0" encoding="UTF-8" standalone="no"?>
<!DOCTYPE svg PUBLIC "-//W3C//DTD SVG 1.1//EN" "http://www.w3.org/Graphics/SVG/1.1/DTD/svg11.dtd">
<svg width="100%" height="100%" viewBox="0 0 1200 1200" version="1.1" xmlns="http://www.w3.org/2000/svg" xmlns:xlink="http://www.w3.org/1999/xlink" xml:space="preserve" xmlns:serif="http://www.serif.com/" style="fill-rule:evenodd;clip-rule:evenodd;stroke-linejoin:round;stroke-miterlimit:2;">
    <g>
        <path d="M707.52,549.21C719.481,549.038 730.461,542.562 736.391,532.175C742.321,521.788 742.321,509.042 736.391,498.655C730.457,488.268 719.477,481.792 707.52,481.62C695.559,481.792 684.579,488.268 678.649,498.655C672.715,509.042 672.719,521.792 678.649,532.175C684.583,542.562 695.559,549.042 707.52,549.21Z" style="fill:#fff;fill-rule:nonzero;"/>
        <path d="M504.76,549.21C516.717,549.038 527.698,542.562 533.631,532.175C539.561,521.788 539.561,509.042 533.627,498.655C527.697,488.268 516.717,481.792 504.756,481.62C492.799,481.792 481.818,488.268 475.889,498.655C469.955,509.042 469.955,521.792 475.889,532.175C481.819,542.562 492.799,549.042 504.76,549.21L504.76,549.21Z" style="fill:#fff;fill-rule:nonzero;"/>
        <path d="M1037.5,812.9L940.043,735.599C954.09,690.283 966.355,633.949 946.75,587.369L1032.54,494.224C1037.04,489.337 1038.62,482.435 1036.69,476.076L979.257,286.916C1058.77,213.514 1003.87,73.456 894.042,75.016C889.069,75.016 884.3,76.993 880.784,80.508C877.268,84.024 875.296,88.793 875.296,93.766L875.296,179.438L789.624,179.438C784.647,179.438 779.878,181.415 776.362,184.93C772.846,188.446 770.87,193.216 770.874,198.188C770.772,240.465 792.409,279.821 828.159,302.388C863.905,324.958 908.741,327.564 946.869,309.295L997.693,476.705L925.338,555.264C903.225,531.369 872.197,517.702 839.639,517.518L827.53,517.518C827.541,516.779 827.635,516.061 827.635,515.318L827.639,515.322C827.35,480.545 812.03,447.599 785.631,424.963C759.233,402.326 724.33,392.217 689.92,397.236C655.51,402.255 624.951,421.916 606.119,451.15C587.346,421.388 556.451,401.369 521.619,396.392C486.783,391.416 451.517,401.986 425.166,425.306C398.811,448.622 384.021,482.337 384.717,517.517L360.444,517.517C327.788,517.291 296.581,530.955 274.596,555.103L202.389,476.705L253.213,309.295C291.365,327.088 335.943,324.256 371.543,301.788C407.137,279.315 428.863,240.284 429.207,198.188C429.207,193.215 427.234,188.445 423.719,184.93C420.199,181.41 415.43,179.437 410.457,179.437L324.785,179.437L324.785,93.765C324.785,88.793 322.812,84.023 319.292,80.503C315.777,76.988 311.007,75.011 306.034,75.015C273.077,74.976 241.483,88.16 218.331,111.613C195.179,135.07 182.405,166.832 182.874,199.785C183.339,232.738 197.011,264.125 220.819,286.914L163.389,476.084C161.46,482.443 163.042,489.346 167.546,494.232L253.335,587.373C233.694,634.166 246.053,689.263 260.089,735.563L162.581,812.907C159.764,815.141 157.647,818.141 156.487,821.548C155.331,824.954 155.174,828.622 156.045,832.114L191.19,973.364C192.901,979.758 197.858,984.778 204.229,986.571C210.604,988.36 217.448,986.66 222.241,982.09C227.03,977.524 229.058,970.766 227.573,964.317L195.346,834.797L274.522,771.985L274.526,771.981C287.217,799.036 303.698,824.149 323.464,846.559L280.839,880.516C278.031,882.755 275.921,885.755 274.765,889.153C273.613,892.555 273.46,896.219 274.331,899.704L309.479,1040.95L309.476,1040.95C311.093,1047.45 316.054,1052.6 322.488,1054.45C328.925,1056.3 335.859,1054.58 340.679,1049.93C345.499,1045.27 347.475,1038.41 345.858,1031.91L313.624,902.35L349.835,873.506L349.835,873.502C373.983,895.506 401.339,913.709 430.96,927.49L402.257,950.396L402.253,950.393C399.449,952.631 397.347,955.627 396.195,959.025C395.042,962.424 394.89,966.084 395.753,969.564L430.843,1110.79L430.847,1110.79C432.566,1117.18 437.523,1122.19 443.894,1123.98C450.261,1125.76 457.097,1124.06 461.89,1119.5C466.679,1114.94 468.718,1108.2 467.246,1101.75L435.047,972.208L471.242,943.313C519.117,960.336 583.032,957.59 633.832,957.54L633.836,957.54C666.031,957.575 698.055,952.794 728.836,943.36L765.027,972.212L732.839,1101.76L732.839,1101.76C731.221,1108.26 733.198,1115.13 738.022,1119.78C742.843,1124.43 749.78,1126.15 756.221,1124.3C762.659,1122.45 767.623,1117.3 769.237,1110.8L804.327,969.57L804.331,969.57C805.194,966.086 805.042,962.422 803.886,959.023C802.734,955.621 800.628,952.621 797.819,950.383L769.155,927.528C798.768,913.739 826.112,895.52 850.245,873.505L886.46,902.353L854.226,1031.91L854.226,1031.92C852.762,1038.36 854.797,1045.1 859.586,1049.65C864.375,1054.2 871.203,1055.9 877.566,1054.12C883.929,1052.34 888.886,1047.34 890.609,1040.96L925.757,899.719L925.753,899.715C926.624,896.231 926.472,892.567 925.319,889.164C924.163,885.766 922.054,882.766 919.245,880.528L876.62,846.567C896.393,824.161 912.878,799.051 925.565,771.997L1004.74,834.806L972.51,964.336C971.01,970.793 973.034,977.559 977.827,982.137C982.623,986.711 989.479,988.418 995.858,986.617C1002.24,984.82 1007.19,979.785 1008.89,973.379L1044.04,832.139L1044.04,832.139C1044.91,828.647 1044.75,824.979 1043.6,821.573C1042.43,818.167 1040.32,815.167 1037.5,812.933L1037.5,812.9ZM810.59,216.94L894.051,216.94L894.051,216.936C899.024,216.936 903.793,214.963 907.313,211.448C910.829,207.928 912.805,203.159 912.801,198.186L912.801,114.725C932.844,119.205 950.606,130.741 962.848,147.225C975.09,163.713 981,184.053 979.496,204.53C977.992,225.01 969.176,244.268 954.656,258.788C940.133,273.311 920.875,282.128 900.398,283.632C879.918,285.136 859.578,279.226 843.093,266.984C826.605,254.742 815.07,236.98 810.589,216.937L810.59,216.94ZM287.29,114.73L287.29,198.191C287.29,203.164 289.263,207.933 292.782,211.453C296.298,214.969 301.067,216.945 306.04,216.941L389.501,216.941C385.021,236.984 373.485,254.746 357.001,266.988C340.513,279.23 320.177,285.14 299.696,283.636C279.216,282.132 259.958,273.316 245.438,258.792C230.918,244.272 222.102,225.015 220.598,204.538C219.09,184.058 225.001,163.718 237.243,147.233C249.489,130.745 267.251,119.21 287.29,114.729L287.29,114.73ZM707.51,432.69C736.869,432.936 763.893,448.741 778.498,474.206C793.107,499.675 793.107,530.979 778.498,556.444C763.889,581.909 736.869,597.714 707.51,597.96C678.155,597.714 651.131,581.909 636.522,556.444C621.917,530.975 621.917,499.671 636.522,474.206C651.131,448.741 678.155,432.936 707.51,432.69ZM504.75,432.69C534.102,432.944 561.117,448.749 575.719,474.213C590.324,499.678 590.324,530.975 575.719,556.436C561.117,581.901 534.102,597.706 504.75,597.959C475.398,597.705 448.383,581.897 433.781,556.436C419.176,530.971 419.176,499.674 433.781,474.213C448.383,448.748 475.398,432.943 504.75,432.69ZM566.254,920.02C528.629,920.098 491.363,912.684 456.634,898.204C421.904,883.724 390.407,862.47 363.982,835.684C284.072,761.735 214.502,537.344 391.611,555.024C401.802,583.336 422.224,606.809 448.857,620.817C475.486,634.825 506.4,638.356 535.502,630.711C564.607,623.067 589.795,604.805 606.107,579.52C622.224,605.098 647.416,623.637 676.627,631.422C705.842,639.204 736.916,635.657 763.623,621.489C790.33,607.317 810.693,583.575 820.631,555.024L839.651,555.024C983.331,568.899 903.858,774.194 835.479,836.324L835.475,836.324C809.112,862.969 777.702,884.094 743.08,898.465C708.458,912.836 671.322,920.164 633.84,920.024L566.254,920.02Z" style="fill:#fff;fill-rule:nonzero;"/>
    </g>
</svg>
