<?xml version="1.0" encoding="UTF-8" standalone="no"?>
<!DOCTYPE svg PUBLIC "-//W3C//DTD SVG 1.1//EN" "http://www.w3.org/Graphics/SVG/1.1/DTD/svg11.dtd">
<svg width="100%" height="100%" viewBox="0 0 1100 1100" version="1.1" xmlns="http://www.w3.org/2000/svg" xmlns:xlink="http://www.w3.org/1999/xlink" xml:space="preserve" xmlns:serif="http://www.serif.com/" style="fill-rule:evenodd;clip-rule:evenodd;stroke-linejoin:round;stroke-miterlimit:2;">
    <g transform="matrix(1,0,0,1,-50,-44)">
        <path d="M864.66,414.36C876.586,412.559 887.93,411.883 900.773,411.716L907.503,411.735C924.21,411.79 940.503,413.649 956.253,417.024L956.253,618.884L693.753,618.884L693.753,430.314C750.98,428.177 808.243,422.853 864.663,414.357L864.66,414.36ZM417.53,318.887L428.913,318.887C442.433,318.887 455.706,320.575 468.475,323.801L452.799,335.574C419.76,360.304 372.119,362.781 336.739,341.555L334.903,340.449C338.372,338.949 341.934,337.637 345.309,335.949C367.582,324.793 392.594,318.887 417.532,318.887L417.53,318.887ZM412.507,686.437C412.507,590.417 440.39,498.147 493.3,418.517C546.007,450.806 578.855,506.755 581.144,568.967C521.706,594.99 469.154,635.248 428.534,686.007L424.221,691.405L424.221,691.425C420.752,695.792 412.502,693.413 412.502,686.437L412.507,686.437ZM413.706,928.707C412.901,921.508 412.507,914.176 412.507,906.937C412.507,880.085 417.87,853.988 428.445,829.292L456.777,763.198C460.601,767.624 464.577,771.917 468.609,776.155L460.265,805.331C453.476,829.143 450.007,853.819 450.007,878.624C450.007,907.331 454.601,935.718 463.695,963.019L484.34,1024.91C486.437,1031.23 487.508,1037.79 487.508,1044.49C487.508,1056.75 483.926,1068.6 477.102,1078.82L468.235,1092.11C457.883,1107.66 452.055,1125.43 450.61,1143.9L396.161,1143.9C399.329,1131.98 405.61,1121.05 414.556,1112.1C425.712,1100.94 431.13,1085.55 429.388,1069.87L413.706,928.707ZM900.026,1106.39L906.702,1097.44C926.577,1070.99 937.507,1038.19 937.507,1005.08C937.507,996.696 936.811,988.204 935.425,979.767L922.152,900.134L926.484,900.134C928.808,905.235 931.058,910.372 933.554,915.376L964.417,977.103C971.35,990.982 975.007,1006.5 975.007,1022.01C975.007,1037.52 971.351,1053.04 964.413,1066.92L951.382,1093.02C943.487,1108.81 939.046,1126.26 937.976,1143.91L883.187,1143.91C885.964,1130.37 891.703,1117.47 900.027,1106.39L900.026,1106.39ZM1129.49,729.827C1089.19,840.657 1068.76,956.647 1068.76,1074.53L1068.76,1143.88L975.455,1143.88C976.447,1132.05 979.58,1120.39 984.904,1109.78L997.935,1083.67C1007.46,1064.65 1012.5,1043.31 1012.5,1022.01C1012.5,1000.71 1007.46,979.394 997.954,960.343L967.091,898.616C935.482,835.37 918.755,764.586 918.755,693.886L881.255,693.886C881.255,751.241 891.435,808.656 910.935,862.636L832.224,862.636C774.286,862.636 717.524,852.773 663.174,833.441C674.612,807.961 687.979,783.23 703.674,759.679L728.123,723.023L696.924,702.23L672.475,738.886C612.795,828.398 581.256,932.576 581.256,1040.14L581.256,1143.88L488.123,1143.88C489.435,1132.83 493.225,1122.24 499.447,1112.88L508.299,1099.61C519.229,1083.24 525.026,1064.17 525.026,1044.49C525.026,1033.76 523.299,1023.17 519.924,1013.04L499.299,951.166C491.463,927.709 487.506,903.299 487.506,878.623C487.506,857.287 490.467,836.1 496.338,815.643L524.295,717.788L488.221,707.495L480.869,733.183C473.67,724.484 467.049,715.351 460.826,705.941C499.713,658.597 550.096,621.546 606.946,598.821L618.758,594.071L618.758,575.903C618.758,491.173 571.676,415.013 495.888,377.103L481.544,369.939L472.244,382.97C429.025,443.458 400.037,511.35 385.639,583.2L377.67,587.176C348.943,601.539 314.709,603.978 284.201,593.813C267.646,588.301 250.639,584.606 233.053,582.751C243.385,561.751 259.17,543.603 278.69,530.606C292.038,521.758 300.006,506.868 300.006,490.821C300.006,469.579 285.736,450.657 265.318,444.829L217.787,431.235C180.475,420.602 147.588,399.192 121.525,367.915C91.525,331.931 75.005,286.427 75.005,239.795L75.005,147.377C75.005,121.783 68.95,96.135 57.474,73.166C56.669,71.572 56.255,69.772 56.255,67.971C56.255,61.576 61.45,56.385 67.841,56.385L111.884,55.748L106.689,210.118C105.095,256.673 126.416,301.169 164.814,329.988C189.603,348.57 219.189,357.57 249.884,357.195L260.458,356.933C268.876,356.746 277.278,355.863 285.622,354.609L317.442,373.695C339.454,386.894 364.653,393.871 390.305,393.871C420.735,393.871 450.922,383.82 475.297,365.539L508.899,340.34C530.067,352.488 548.61,369.309 562.579,390.289L589.974,431.371L636.869,431.371C643.318,431.371 649.807,431.09 656.256,431.016L656.256,618.876C656.256,639.556 673.076,656.376 693.756,656.376L956.256,656.376C976.936,656.376 993.756,639.556 993.756,618.876L993.756,428.566C1081.45,463.421 1143.76,548.996 1143.76,648.826C1143.76,676.556 1138.95,703.799 1129.49,729.842L1129.49,729.827Z" style="fill:#fff;fill-rule:nonzero;"/>
    </g>
</svg>
