<?xml version="1.0" encoding="UTF-8" standalone="no"?>
<!DOCTYPE svg PUBLIC "-//W3C//DTD SVG 1.1//EN" "http://www.w3.org/Graphics/SVG/1.1/DTD/svg11.dtd">
<svg width="100%" height="100%" viewBox="0 0 1200 1200" version="1.1" xmlns="http://www.w3.org/2000/svg" xmlns:xlink="http://www.w3.org/1999/xlink" xml:space="preserve" xmlns:serif="http://www.serif.com/" style="fill-rule:evenodd;clip-rule:evenodd;stroke-linejoin:round;stroke-miterlimit:2;">
    <g>
        <path d="M638.62,370.26C631.097,367.991 621.593,377.338 617.382,391.174C613.183,405.01 615.894,418.065 623.452,420.358C630.964,422.651 640.491,413.28 644.667,399.428C648.867,385.608 646.167,372.537 638.62,370.26L638.62,370.26ZM638.597,397.608C636.268,405.276 630.999,410.483 626.851,409.225C622.64,407.94 621.128,400.694 623.479,393.014C625.808,385.346 631.101,380.151 635.264,381.409C639.448,382.69 640.925,389.94 638.596,397.608L638.597,397.608Z" style="fill:#fff;fill-rule:nonzero;"/>
        <path d="M855.54,98.375C855.54,98.375 842.978,58.668 833.712,42.973C793.692,-24.73 778.657,107.629 774.505,158.043C778.153,158.297 781.802,158.824 785.439,159.641C803.353,40.711 855.541,98.379 855.541,98.379L855.54,98.375Z" style="fill:#fff;fill-rule:nonzero;"/>
        <path d="M895.75,390.25C926.172,363.32 894.551,335.23 894.551,335.23L898.078,293.085C901.316,278.827 901.449,269.612 899.961,263.612C899.984,263.682 900.008,263.745 900.008,263.815C899.539,262.737 895.953,244.819 835.254,274.737C835.254,274.737 852.149,262.245 868.77,255.741C837.559,202.651 808.805,179.479 783.606,173.409C780.149,172.581 776.801,172.042 773.465,171.811C772.191,171.741 770.887,171.643 769.637,171.643C714.078,171.643 679.157,252.116 679.157,252.116C657.606,219.343 638.587,213.261 625.384,213.261C620.669,213.261 616.684,214.031 613.599,214.652C601.888,216.992 641.704,255.621 641.704,255.621C646.383,273.187 622.962,378.531 622.962,378.531C622.962,378.531 622.962,391.07 631.602,391.07C632.837,391.07 634.255,390.816 635.848,390.242C648.735,385.562 661.602,369.172 661.602,369.172C624.75,520.972 679.649,518.862 720.114,520.182C798.762,522.776 814.134,526.616 841.864,540.077C915.028,575.608 858.028,617.284 839.118,617.284C834.919,617.284 832.591,615.245 833.97,610.6C835.134,606.737 837.497,605.499 839.993,605.499C844.36,605.499 849.22,609.171 849.22,609.171C846.689,596.558 841.853,591.542 836.993,591.542C832.012,591.542 826.973,596.784 824.321,604.452C816.063,628.249 827.067,636.96 842.848,636.96C858.578,636.96 879.039,628.284 889.864,617.327C920.704,586.054 888.688,538.893 888.688,538.893C893.403,539.397 897.774,539.623 901.782,539.623C1002.9,539.647 895.747,390.243 895.747,390.243L895.75,390.25ZM711.36,287.24C711.36,287.24 695.555,187.736 781.594,259.736C781.598,259.724 710.184,212.314 711.36,287.24ZM781.778,345.287C779.52,353.389 767.762,371.494 748.848,352.271C736.895,340.103 723.91,320.326 730.883,286.404C737.867,252.466 765.817,265.439 774.805,286.404C783.77,307.365 785.774,331.006 781.778,345.287L781.778,345.287ZM846.434,358.244C831.504,368.658 825.938,355.174 825.434,349.51C824.571,339.525 828.84,324.069 837.422,311.28C845.977,298.475 866.149,293.339 866.57,316.741C867,340.139 855.91,351.647 846.433,358.245L846.434,358.244Z" style="fill:#fff;fill-rule:nonzero;"/>
        <path d="M881.94,252.98C883.006,252.98 884.534,252.824 886.284,252.824C891.132,252.824 897.612,254.121 899.964,263.613C896.843,249.035 882.925,250.211 868.765,255.742C868.8,255.789 868.835,255.839 868.851,255.886C868.847,255.882 876.601,252.98 881.941,252.98L881.94,252.98Z" style="fill-rule:nonzero;"/>
        <path d="M962.53,557.2C948.214,556.036 930.538,557.825 913.319,559.528C919.307,579.184 921.01,605.548 899.733,627.098C886.147,640.852 862.221,650.844 842.854,650.844C826.163,650.844 817.557,643.68 813.26,637.68C806.518,628.188 805.846,615.504 811.221,599.953C815.975,586.238 825.85,577.707 836.987,577.707C841.655,577.707 851.448,579.399 858.034,592.168C860.936,589.133 863.217,585.664 864.01,582.027C866.819,569.14 845.24,557.129 835.822,552.554C811.701,540.843 799.33,536.667 719.662,534.038L716.709,533.94C710.842,533.772 704.35,533.546 697.666,532.812L690.358,551.542C690.358,551.542 532.788,625.8 520.258,747.112C516.035,787.983 508.953,876.562 616.426,880.372C642.516,881.297 679.246,898.673 690.36,954.075C696.649,985.466 709.09,1161.78 636.493,1070.32C597.782,1021.53 596.786,932.415 390.403,1045.78C410.829,1035.04 519.453,984.542 591.133,1081.74C670.512,1189.38 749.883,1124.34 786.753,1081.74C823.581,1039.12 1010.71,1056.12 999.383,829.351C999.383,829.351 1083.56,857.144 1130.81,809.359C1176.14,763.511 1214.42,578.019 962.523,557.199L962.53,557.2Z" style="fill:#fff;fill-rule:nonzero;"/>
        <path d="M36.109,1056.6C39.336,1044.69 52.035,1041.3 63.984,1040.63C68.472,1040.39 72.984,1039.93 77.461,1040.27C105.313,1042.26 108.445,1045.44 111.18,1073.45C111.336,1074.92 111.922,1076.38 113.27,1081.34C119.739,1074.97 130.922,1047.38 175.344,1037.25C171.516,1030.49 166.297,1022.17 175.859,1015.56C178.824,1013.51 185.879,1013.67 188.699,1015.85C196.801,1022.16 193.211,1030.08 187.633,1037.87C191.34,1039.69 194.028,1041.19 196.824,1042.41C210.109,1048.2 222.191,1055.11 231.828,1066.75C235.61,1071.34 244.668,1073.48 251.269,1073.4C262.308,1073.27 273.601,1071.54 284.246,1068.53C297.793,1064.71 311.211,1059.78 323.953,1053.8C337.539,1047.41 351.41,1048.86 365.363,1049.62C367.621,1049.75 375.145,1055.21 377.34,1056.69C375.782,1058.83 369.122,1059.66 367.176,1060.08C328.309,1068.24 300.996,1096.02 269.891,1117.27C249.633,1131.09 228.84,1143.49 207.25,1147.93C212.028,1153.78 217.114,1158.68 222.789,1164.93C229.043,1171.82 228.899,1177.48 220.196,1180.99C206.227,1187.26 158.145,1188.73 138.426,1182.88C128.863,1179.77 127.961,1173.53 135.281,1166.54C141.687,1160.43 148.301,1154.56 155.488,1147.93C134.535,1142.99 118,1132.4 106.793,1114.12C98.778,1120.76 92.418,1130.28 82.684,1121.52C73.805,1113.54 79.262,1105.5 86.286,1097.65C78.09,1094.57 70.88,1091.95 63.763,1089.15C52.661,1084.69 39.056,1080.78 36.103,1068.19C35.232,1064.45 35.091,1060.33 36.111,1056.6L36.109,1056.6ZM99.168,1094.63C99.383,1077.72 90.602,1056.77 77.832,1054.62C74.398,1054.01 49.621,1054.13 62.508,1066.87C73.969,1076.16 85.981,1084.75 99.168,1094.63Z" style="fill:#fff;"/>
    </g>
</svg>
