<?xml version="1.0" encoding="UTF-8" standalone="no"?>
<!DOCTYPE svg PUBLIC "-//W3C//DTD SVG 1.1//EN" "http://www.w3.org/Graphics/SVG/1.1/DTD/svg11.dtd">
<svg width="100%" height="100%" viewBox="0 0 1100 1100" version="1.1" xmlns="http://www.w3.org/2000/svg" xmlns:xlink="http://www.w3.org/1999/xlink" xml:space="preserve" xmlns:serif="http://www.serif.com/" style="fill-rule:evenodd;clip-rule:evenodd;stroke-linejoin:round;stroke-miterlimit:2;">
    <g transform="matrix(1,0,0,1,-50,-40)">
        <path d="M404.53,421.67C404.518,421.83 404.503,421.986 404.491,422.147C404.03,427.67 402.71,432.346 400.667,436.124C396.87,443.135 390.585,447.034 382.706,447.44C370.983,448.045 359.206,440.182 359.206,430.514C359.206,428.564 360.784,426.986 362.733,426.986C364.682,426.986 366.26,428.564 366.26,430.514C366.26,435.498 374.217,440.815 382.342,440.392C390.647,439.963 396.389,434.057 397.444,421.982C397.452,421.9 397.46,421.818 397.468,421.736C398.526,421.826 399.62,421.869 400.753,421.865C402.042,421.861 403.28,421.795 404.472,421.674C404.48,421.834 404.483,421.99 404.491,422.147C405.046,434.194 410.319,440.1 418.253,440.667C426.023,441.221 434.023,436.127 434.261,431.311C434.355,429.366 436.011,427.866 437.961,427.959C439.906,428.057 441.406,429.713 441.308,431.659C440.847,441.006 429.066,448.514 417.749,447.706C410.073,447.159 404.101,443.167 400.667,436.124C398.8,432.292 397.683,427.557 397.445,421.983C397.441,421.901 397.441,421.819 397.437,421.737C377.656,420.084 370.46,403.147 375.695,397.639C381.913,393.244 416.777,393.057 424.074,397.314C430.281,403.31 423.882,419.697 404.531,421.669L404.53,421.67ZM532.81,286.56C549.052,316.146 558.259,351.88 562.673,392.57C567.986,441.566 533.9,485.847 482.685,508.92C482.665,513.982 482.853,519.775 483.337,526.072C484.298,538.502 486.279,550.701 489.505,562.06C497.521,590.287 512.009,609.615 534.31,616.833C544.65,620.181 560.58,621.399 583.244,620.841C600.443,620.415 610.197,619.763 655.623,616.333C682.228,614.325 698.756,613.235 716.275,612.481C755.482,610.79 787.373,611.614 815.009,615.771C848.329,620.778 874.372,630.603 892.9,646.435C934.115,681.657 960.486,731.38 964.443,782.755C968.682,837.759 947.345,890.505 900.693,932.425C901.838,950.912 900.412,982.659 897.064,1022C894.193,1055.73 890.049,1092.59 886.982,1112.89C883.9,1133.28 867.38,1142.12 847.224,1139.04C829.376,1136.31 813.47,1125.01 813.47,1111.94C813.47,1107.18 813.365,1102.32 813.158,1097.35C812.052,1070.77 808.123,1042.23 802.263,1013.41C801.24,1008.38 800.185,1003.48 799.115,998.746C797.068,1014.18 795.029,1029.48 793.099,1043.9C787.88,1082.94 784.349,1108.94 782.986,1118.21C780.822,1132.91 765.353,1140.5 746.931,1139.98C728.939,1139.47 713.611,1131.42 712.236,1117.92C708.088,1077.26 705.314,1055.3 701.127,1033.4C696.334,1008.37 690.096,987.345 681.389,967.97C668.194,969.22 650.334,970.115 628.842,970.709C614.85,971.096 599.947,971.338 584.569,971.463C576.159,971.533 569.452,971.56 561.733,971.568C561.264,976.467 560.717,983.838 559.944,995.334C559.795,997.529 559.26,1005.46 559.221,1006.03C558.924,1010.5 558.682,1014.04 558.44,1017.54C557.811,1026.58 557.229,1034.42 556.624,1041.9C553.241,1083.78 549.483,1109.7 543.874,1120.26C537.256,1132.7 522.081,1138.22 505.218,1137.06C489.062,1135.95 475.366,1129.05 474.445,1118.23C473.882,1111.65 473.437,1105.03 472.78,1094.03C471.562,1073.54 470.71,1060.53 469.702,1049.74C469.089,1055.17 468.409,1060.43 467.632,1065.92C467.843,1064.41 462.226,1101.6 460.023,1118.12C458.991,1125.87 454.155,1131.75 446.793,1135.33C440.808,1138.24 433.27,1139.58 425.355,1139.38C408.343,1138.98 393.289,1132.13 391.929,1120.58C389.933,1103.59 386.296,1084.03 381.261,1062.4C377.538,1046.42 373.116,1029.58 368.136,1012.21C362.518,992.596 356.495,973.326 350.476,955.221C348.37,948.889 346.413,943.155 344.659,938.123C344.159,936.689 343.706,935.396 343.3,934.252C339.542,932.064 336.616,930.072 333.495,927.607C324.726,920.678 316.015,911.322 307.933,899.201C287.703,868.846 274.679,826.33 272.105,769.711C268.957,700.387 281.75,613.881 313.457,508.261C302.738,503.699 292.766,498.289 283.793,492.093C249.668,468.523 232.027,435.253 235.895,396.425C239.989,355.382 249.942,318.265 266.973,288.045C246.93,285.205 234.328,267.334 234.016,245.357C233.704,223.646 245.52,205.81 264.93,202.634C262.321,190.169 264.727,178.677 271.114,169.724C270.172,161.216 269.204,152.427 268.239,143.701C265.891,122.435 265.407,107.513 267.528,94.943C268.938,86.592 271.532,79.748 275.676,74.517C280.614,68.287 287.516,64.732 295.93,64.294C308.524,63.638 318.141,68.04 325.047,76.97C329.989,83.357 332.86,90.337 337.094,103.978C337.364,104.842 338.391,108.177 338.637,108.97C339.235,110.904 339.723,112.447 340.204,113.924C340.875,115.982 341.536,118.088 342.192,120.236C343.582,124.814 344.918,129.517 346.192,134.295C351.004,131.858 356.239,130.502 361.762,130.268C374.305,129.74 386.895,135.279 395.543,144.584C404.32,132.518 417.512,127.928 431.371,131.029C432.656,126.146 434,121.337 435.406,116.662C436.058,114.486 436.719,112.357 437.39,110.275C437.871,108.775 438.359,107.216 438.957,105.256C439.203,104.451 440.234,101.076 440.504,100.201C444.73,86.404 447.594,79.349 452.524,72.896C459.426,63.861 469.059,59.396 481.68,60.064C490.113,60.505 497.028,64.111 501.961,70.416C506.094,75.693 508.672,82.596 510.078,91.025C512.199,103.728 511.715,118.826 509.367,140.341C508.773,145.771 508.18,151.224 507.59,156.622C519.297,164.442 527.621,178.661 528.75,196.923C553.242,201.47 568.695,220.861 568.988,243.782C569.273,265.884 555.312,283.505 532.812,286.555L532.81,286.56ZM269.56,304.525C256.9,331.185 249.173,362.806 245.724,397.412C242.232,432.443 258.087,462.342 289.404,483.971C318.861,504.315 360.197,515.807 403.084,515.807C444.229,515.807 483.955,502.264 512.594,479.186C541.446,455.94 556.293,425.338 552.856,393.635C549.297,360.819 542.544,331.412 531.461,306.186C529.711,312.139 526.512,317.518 521.977,321.694C511.254,331.557 495.258,333.159 476.915,325.421C473.454,339.386 460.337,350.222 443.606,353.913C425.907,357.819 408.497,352.862 398.102,339.636C385.629,352.382 369.286,355.777 353.52,350.402C340.348,345.909 329.813,335.828 326.649,324.793C310.434,330.109 295.18,329.066 283.852,322C277.117,317.8 272.254,311.766 269.563,304.527L269.56,304.525ZM281.892,159.435C285.119,157.318 288.568,155.669 292.146,154.505C291.658,150.091 291.166,145.65 290.677,141.224C288.548,121.935 288.115,108.615 289.79,98.708C290.619,93.794 292.544,87.411 297.103,86.845C302.294,86.205 304.814,87.72 307.189,90.791C309.916,94.318 312.091,99.607 315.529,110.678C315.787,111.517 316.814,114.846 317.072,115.666C317.697,117.689 318.212,119.326 318.732,120.916C319.357,122.83 319.974,124.795 320.584,126.81C323.111,135.119 325.459,143.939 327.587,152.872C330.736,147.329 334.494,142.77 338.732,139.231C336.838,131.958 334.627,124.157 332.15,116.547C324.744,93.785 320.978,71.473 296.369,72.754C271.51,74.047 273.15,111.063 276.65,142.774C277.397,149.532 278.111,155.989 278.744,161.712C279.748,160.916 280.799,160.154 281.893,159.435L281.892,159.435ZM451.872,141.951C453.489,135.521 455.212,129.209 457.028,123.162C457.641,121.123 458.259,119.131 458.884,117.189C459.399,115.576 459.915,113.924 460.544,111.877C460.798,111.049 461.825,107.674 462.087,106.822C465.532,95.588 467.716,90.205 470.462,86.607C472.845,83.49 475.364,81.732 480.489,82.615C485.61,83.498 486.969,89.724 487.805,94.744C489.485,104.822 489.051,118.334 486.919,137.896C486.481,141.9 486.044,145.915 485.61,149.912C490.442,149.912 495.129,150.791 499.524,152.459C499.977,148.334 500.454,143.947 500.946,139.428C504.45,107.315 506.09,69.834 481.231,68.522C456.622,67.225 452.856,89.819 445.446,112.87C443.208,119.835 441.188,126.96 439.422,133.706C444.012,135.749 448.239,138.565 451.871,141.952L451.872,141.951ZM325.332,512.871C294.223,616.761 281.719,701.551 284.789,769.131C287.262,823.522 299.598,863.795 318.5,892.151C325.828,903.147 333.625,911.526 341.363,917.639C344.023,919.737 346.465,921.397 348.625,922.666C349.351,923.092 349.984,923.436 350.511,923.705C350.785,923.846 353.476,925.018 353.476,925.018L354.406,927.592C355.476,930.584 356.027,932.155 356.648,933.936C358.421,939.026 360.398,944.815 362.523,951.209C368.597,969.471 374.671,988.908 380.343,1008.71C385.374,1026.27 389.851,1043.31 393.628,1059.52C396.948,1073.78 399.675,1087.19 401.745,1099.62C406.546,1100.24 416.007,1101.27 426.171,1101.27C435.183,1101.27 444.194,1100.46 449.757,1099.84C452.238,1082.67 455.218,1062.95 455.054,1064.13C456.98,1050.56 458.269,1038.52 459.546,1021.14C460.089,1013.72 460.628,1005.33 461.179,995.677L463.109,961.657C463.375,956.989 464.492,956.892 465.601,961.431L473.687,994.529C475.914,1003.65 477.749,1013.22 479.269,1023.4C482.214,1043.13 483.234,1055.94 485.456,1093.27C485.605,1095.75 485.742,1098 485.871,1100.08C492.081,1100.69 501.488,1101.43 510.223,1101.43C521.141,1101.43 532.059,1100.27 536.969,1099.66C539.554,1086.66 541.875,1066.72 543.965,1040.88C544.562,1033.45 545.14,1025.65 545.765,1016.65C546.008,1013.17 546.25,1009.64 546.551,1005.18C546.586,1004.61 547.121,996.673 547.269,994.469C548.441,977.133 549.082,969.102 549.789,964.293L550.586,958.868L556.07,958.868C566.347,958.868 574.109,958.844 584.461,958.758C599.762,958.633 614.59,958.391 628.488,958.008C652.25,957.352 671.476,956.325 684.55,954.872L689.054,954.372L690.992,958.469C701.187,980.024 708.281,1003.23 713.597,1031.01C717.292,1050.32 719.89,1069.53 723.222,1100.81C729.647,1101.41 739.148,1102.14 747.593,1102.14C757.499,1102.14 767.405,1101.14 772.644,1100.52C774.456,1087.31 777.081,1067.86 780.331,1043.56C782.784,1025.19 785.214,1006.95 787.632,988.703C788.48,982.321 789.265,976.391 789.968,971.07C790.218,969.211 790.436,967.555 790.624,966.133C790.843,964.461 793.643,943.27 793.643,943.27C794.257,938.637 795.831,938.508 797.167,942.996L803.237,963.406C803.718,965.067 803.964,965.934 804.241,966.922C805.026,969.738 805.901,972.992 806.839,976.645C809.522,987.055 812.202,998.571 814.706,1010.88C820.69,1040.3 824.706,1069.48 825.843,1096.82C825.894,1098 825.937,1099.18 825.976,1100.36C832.804,1101.16 842.785,1102.14 850.96,1102.14C861.108,1102.14 871.253,1100.63 875.995,1099.82C878.764,1079 882.026,1048.87 884.409,1020.91C887.897,979.91 889.264,947.215 887.8,930.297L887.522,927.09L889.944,924.969C935.253,885.34 955.776,835.645 951.776,783.719C948.085,735.789 923.354,689.157 884.643,656.079C868.198,642.024 844.291,633.009 813.116,628.321C786.428,624.305 755.284,623.5 716.823,625.16C699.471,625.91 683.057,626.988 656.577,628.988C610.87,632.442 601.069,633.098 583.554,633.528C559.558,634.121 542.456,632.813 530.398,628.906C503.39,620.164 486.347,597.426 477.285,565.519C473.808,553.273 471.695,540.257 470.676,527.039C470.32,522.434 470.113,518.079 470.027,514.047C449.527,521.497 426.8,525.68 403.078,525.68C375.808,525.68 349.098,521.22 325.332,512.868L325.332,512.871ZM402.965,329.111C410.184,342.431 425.383,347.818 441.473,344.267C456.934,340.853 467.926,330.259 467.926,318.044L467.926,309.88L475.16,313.669C492.715,322.872 506.711,322.31 515.285,314.423C522.906,307.407 525.312,295.095 521.094,283.821L518.598,277.149L525.719,277.149C546.61,277.149 559.352,262.95 559.11,243.911C558.86,224.544 545.251,208.532 523.395,206.114L518.997,205.63L518.997,201.204C518.997,184.142 511.754,170.345 500.364,163.763C489.048,157.22 475.122,158.638 462.473,168.736L455.922,173.966L454.523,165.697C452.644,154.595 442.816,144.482 430.968,141.119C418.476,137.572 407.109,142.193 400.468,155.463L396.597,163.193L391.902,155.931C385.48,145.99 373.66,139.658 362.175,140.142C349.323,140.685 338.413,149.369 332.144,166.568L329.828,172.916L324.484,168.783C313.625,160.393 298.664,160.236 287.312,167.693C275.468,175.475 270.562,189.373 275.921,205.521L278.077,212.018L271.233,212.018C254.299,212.018 243.616,226.256 243.885,245.221C244.159,264.276 255.365,278.565 272.643,278.565L278.452,278.565L277.518,284.295C273.104,311.483 297.323,326.588 328.706,313.486L335.546,310.631L335.546,318.045C335.546,326.822 344.55,336.904 356.702,341.049C370.507,345.756 384.472,341.943 394.686,328.483L399.315,322.381L402.965,329.111ZM281.185,375.525C274.783,374.81 268.208,369.861 278.029,368.822C287.849,367.779 301.072,360.267 305.681,355.908C310.079,351.756 316.138,348.654 321.4,349.752C330.564,351.658 335.994,362.541 333.564,373.979C331.134,385.413 321.748,393.108 312.599,391.163C305.239,389.596 300.279,382.276 299.884,373.518C294.958,375.412 289.017,376.397 281.185,375.525ZM320.943,367.087C322.486,367.306 324.002,365.603 324.326,363.291C324.65,360.974 323.666,358.919 322.119,358.705C320.576,358.486 319.06,360.189 318.736,362.506C318.412,364.818 319.4,366.873 320.943,367.087ZM518.833,375.283C511.001,376.158 505.056,375.173 500.134,373.279C499.739,382.033 494.775,389.357 487.419,390.92C478.271,392.865 468.884,385.174 466.454,373.736C464.02,362.302 469.45,351.42 478.614,349.509C483.88,348.415 489.938,351.513 494.333,355.669C498.946,360.028 512.165,367.54 521.989,368.579C531.809,369.622 525.231,374.571 518.833,375.282L518.833,375.283ZM486.13,366.849C487.673,366.63 488.661,364.58 488.337,362.263C488.009,359.947 486.497,358.248 484.95,358.462C483.407,358.681 482.419,360.732 482.747,363.048C483.071,365.365 484.587,367.064 486.13,366.849ZM400.255,481.599C355.247,481.599 333.786,445.537 340.138,417.396C346.486,389.259 365.318,361.287 399.548,361.287C433.778,361.287 453.185,390.67 459.532,418.81C465.884,446.947 445.262,481.599 400.255,481.599ZM400.255,474.541C419.306,474.541 434.267,467.783 443.696,456.279C452.149,445.97 455.399,432.545 452.649,420.361C449.505,406.42 443.278,393.549 434.786,384.256C425.364,373.94 413.571,368.346 399.548,368.346C385.435,368.346 373.767,373.693 364.552,383.6C356.22,392.553 350.157,405.041 347.021,418.952C344.279,431.093 347.709,444.901 356.408,455.597C366.107,467.519 381.263,474.542 400.256,474.542L400.255,474.541Z" style="fill:#fff;fill-rule:nonzero;"/>
    </g>
</svg>
