<?xml version="1.0" encoding="UTF-8" standalone="no"?>
<!DOCTYPE svg PUBLIC "-//W3C//DTD SVG 1.1//EN" "http://www.w3.org/Graphics/SVG/1.1/DTD/svg11.dtd">
<svg width="100%" height="100%" viewBox="0 0 1200 1200" version="1.1" xmlns="http://www.w3.org/2000/svg" xmlns:xlink="http://www.w3.org/1999/xlink" xml:space="preserve" xmlns:serif="http://www.serif.com/" style="fill-rule:evenodd;clip-rule:evenodd;stroke-linejoin:round;stroke-miterlimit:2;">
    <g>
        <path d="M641.54,340.82C641.54,331.207 633.798,323.386 624.274,323.386C614.649,323.386 606.829,331.206 606.829,340.82C606.829,350.347 614.649,358.097 624.274,358.097C633.637,358.097 641.54,350.187 641.54,340.82Z" style="fill:#fff;fill-rule:nonzero;"/>
        <path d="M454.64,323.39C445.015,323.39 437.195,331.21 437.195,340.824C437.195,350.351 445.015,358.101 454.64,358.101C464.007,358.101 471.906,350.191 471.906,340.824C471.906,331.211 464.168,323.39 454.64,323.39Z" style="fill:#fff;fill-rule:nonzero;"/>
        <path d="M1049.2,794.32C1048.54,786.246 1042.11,779.984 1034.21,779.324C1026.3,778.664 1018.88,783.773 1016.9,791.519C971.755,964.049 922.153,1041.99 762.153,1018.75C692.122,1009.52 645.153,981.511 622.583,935.534C598.853,888.569 599.845,827.274 609.239,781.134L657.188,810.298C660.977,812.603 665.758,813.263 670.208,811.946C674.657,810.794 678.282,807.661 680.423,803.54C699.704,765.31 693.603,725.599 681.247,693.63C726.067,714.064 775.669,717.689 821.317,702.365C879.981,682.592 920.516,635.631 929.577,576.635C941.112,500.834 895.468,447.935 855.097,416.965C830.05,397.52 810.605,369.672 797.257,333.914C735.952,168.144 554.367,78.174 546.617,74.384C542.004,72.079 536.731,72.079 532.117,74.384C524.535,78.173 342.947,168.146 281.317,333.914C268.297,369.344 248.852,397.355 223.645,416.965C183.106,448.11 137.461,501.004 149.165,576.635C158.228,635.627 198.763,682.585 257.425,702.365C303.07,717.689 352.671,714.064 397.495,693.794C384.972,725.763 379.042,765.31 398.483,803.544C400.46,807.665 404.253,810.794 408.698,811.951C412.984,813.267 417.761,812.611 421.714,810.302L459.616,787.232C456.32,851.826 469.995,936.692 510.534,1000.13C558.155,1078.07 642.034,1121.9 752.764,1126.85L752.929,1126.85C761.335,1127.18 769.409,1127.35 777.484,1127.35C873.386,1127.35 945.234,1103.12 990.874,1055.18C1056.45,986.625 1057.11,884.786 1049.2,794.316L1049.2,794.32ZM454.61,391.06C426.821,391.06 404.212,368.521 404.212,340.83C404.212,313.049 426.821,290.435 454.61,290.435C482.305,290.435 504.833,313.044 504.833,340.83C504.837,368.521 482.306,391.06 454.61,391.06ZM555.81,530.6C555.81,539.702 548.439,547.08 539.33,547.08C530.221,547.08 522.85,539.701 522.85,530.6L522.85,455.194C522.85,446.092 530.221,438.714 539.33,438.714C548.439,438.714 555.81,446.093 555.81,455.194L555.81,530.6ZM573.833,340.83C573.833,313.049 596.442,290.435 624.231,290.435C651.926,290.435 674.454,313.044 674.454,340.83C674.454,368.525 651.927,391.06 624.231,391.06C596.442,391.064 573.833,368.525 573.833,340.83Z" style="fill:#fff;fill-rule:nonzero;"/>
    </g>
</svg>
