<?xml version="1.0" encoding="UTF-8" standalone="no"?>
<!DOCTYPE svg PUBLIC "-//W3C//DTD SVG 1.1//EN" "http://www.w3.org/Graphics/SVG/1.1/DTD/svg11.dtd">
<svg width="100%" height="100%" viewBox="0 0 1200 1200" version="1.1" xmlns="http://www.w3.org/2000/svg" xmlns:xlink="http://www.w3.org/1999/xlink" xml:space="preserve" xmlns:serif="http://www.serif.com/" style="fill-rule:evenodd;clip-rule:evenodd;stroke-linejoin:round;stroke-miterlimit:2;">
    <path d="M1080,726.99L818.55,726.99C814.406,726.99 811.05,730.346 811.05,734.49C811.05,738.635 814.406,741.99 818.55,741.99L1047.04,741.99L812.83,854.42L671.4,741.99L758.56,741.99C762.704,741.99 766.06,738.635 766.06,734.49C766.06,730.346 762.704,726.99 758.56,726.99L661.576,726.99L873.096,263.32C874.385,260.48 873.783,257.136 871.588,254.926C869.405,252.715 866.065,252.105 863.209,253.359L601.319,370.439C601.229,370.482 601.128,370.529 601.042,370.572C601.042,370.58 601.026,370.58 601.026,370.58C599.71,371.232 598.655,372.228 597.921,373.416L597.921,373.423C597.686,373.802 597.495,374.209 597.335,374.63L597.335,374.638C597.292,374.748 597.245,374.865 597.202,374.982L414.582,922.862L226.802,641.732L458.552,641.732C462.697,641.732 466.052,638.376 466.052,634.232C466.052,630.087 462.697,626.732 458.552,626.732L212.762,626.732C212.559,626.732 212.399,626.873 212.2,626.888C211.239,626.962 210.336,627.212 209.473,627.642C209.203,627.775 208.946,627.861 208.696,628.025C207.735,628.65 206.871,629.431 206.262,630.498L113.489,791.938C111.95,794.617 112.216,797.988 114.165,800.391C115.614,802.176 117.766,803.172 119.993,803.172C120.77,803.172 121.544,803.055 122.294,802.805L281.914,751.258L410.614,943.928C410.973,944.467 411.532,944.768 412,945.186C412.332,945.486 412.575,945.818 412.954,946.053C414.129,946.783 415.438,947.268 416.852,947.268L908.142,947.268C911.333,947.268 914.177,945.248 915.216,942.244C916.271,939.225 915.306,935.889 912.814,933.896L825.892,864.802L1083.25,741.252C1086.4,739.729 1088.08,736.229 1087.31,732.815C1086.54,729.397 1083.5,726.979 1080,726.979L1080,726.99ZM851.21,275.16L654.01,707.42L612.483,381.89L851.21,275.16ZM601.06,410.87L641.97,731.5L432.77,915.77L601.06,410.87ZM136.19,782.57L213.252,648.46L273.268,738.308L136.19,782.57ZM436.72,932.28L650.16,744.27L886.66,932.28L436.72,932.28Z" style="fill:white;fill-rule:nonzero;"/>
</svg>
