<?xml version="1.0" encoding="UTF-8"?>
<svg width="1200pt" height="1200pt" version="1.1" viewBox="0 0 1200 1200" xmlns="http://www.w3.org/2000/svg">
 <g>
  <path d="m893.35 259.98c0-32.992 26.84-60.004 60.004-60.004 32.996 0 60.004 27.008 60.004 60.004 0 33.164-27.008 60.004-60.004 60.004-33.164 0.003906-60.004-26.836-60.004-60.004z"/>
  <path d="m1147 1074.2c0 9.4023-7.6914 17.094-17.094 17.094h-1059.9c-9.4023 0-17.094-7.6914-17.094-17.094s7.6914-17.094 17.094-17.094l112.32-0.003906c-50.09-37.781-81.203-100.52-76.93-164.11 5.4688-82.398 59.148-143.94 111.12-203.6 27.18-31.285 52.996-60.859 71.629-92.828 49.918-85.473 52.996-197.79 7.8633-285.83-3.7617-7.5195-1.5391-16.582 5.1289-21.539 6.668-4.957 15.898-4.4453 21.883 1.3672 115.39 109.75 153.69 291.98 91.461 433.36-11.625 26.668-26.668 52.309-41.199 77.098-30.77 52.824-60.004 102.74-59.832 160.52 0.34375 41.031 18.805 77.953 47.867 95.562h193.52c-76.246-40.176-126.33-125.65-120.52-212.49 6.4961-97.441 70.262-170.61 131.97-241.38 32.82-37.609 63.766-73.168 86.16-111.63 60.176-103.25 63.934-238.65 9.5742-344.98-3.7578-7.5195-1.707-16.582 4.957-21.539 6.668-4.957 15.898-4.4453 22.051 1.3672 136.76 130.26 182.41 346.69 108.38 514.56-13.848 31.457-31.625 62.055-48.891 91.629-37.27 63.766-72.312 123.77-71.969 193.69 0.17188 52.141 24.957 99.152 62.91 119.66 4.4453 2.5625 7.3516 6.4961 8.375 11.113h135.05c-32.82-29.406-52.652-73.68-49.746-118.47 4.2734-62.91 44.789-109.58 83.938-154.54 20.344-23.25 39.488-45.133 53.164-68.723 36.414-62.57 38.805-144.62 5.8125-209.25-3.7578-7.3516-1.707-16.41 4.9609-21.539 6.6641-4.9609 15.898-4.2734 22.051 1.3672 87.184 83.254 116.42 221.38 69.234 328.57-8.8906 20-20.172 39.32-30.941 57.781-22.906 38.977-44.277 75.902-44.105 117.79 0.17188 28.719 12.82 54.707 32.824 67.012h99.836c9.3945 0 17.09 7.6953 17.09 17.098z"/>
  <path d="m331.09 168.69c0-33.164 27.008-60.004 60.176-60.004 32.992 0 60.004 26.84 60.004 60.004 0 32.992-27.008 60.004-60.004 60.004-33.164 0-60.176-27.012-60.176-60.004z"/>
  <path d="m617.09 392.64c0 39.559-32.07 71.629-71.629 71.629s-71.625-32.07-71.625-71.629c0-39.559 32.066-71.629 71.625-71.629s71.629 32.07 71.629 71.629"/>
  <path d="m129.71 487.86c0-33.164 27.008-60.004 60.004-60.004 33.164 0 60.004 26.84 60.004 60.004 0 32.996-26.84 60.004-60.004 60.004-32.996 0-60.004-27.012-60.004-60.004z"/>
  <path d="m952.84 655.9c0 33.137-26.863 60.004-60.004 60.004s-60.004-26.867-60.004-60.004c0-33.141 26.863-60.008 60.004-60.008s60.004 26.867 60.004 60.008"/>
 </g>
</svg>
