<?xml version="1.0" encoding="UTF-8" standalone="no"?>
<!DOCTYPE svg PUBLIC "-//W3C//DTD SVG 1.1//EN" "http://www.w3.org/Graphics/SVG/1.1/DTD/svg11.dtd">
<svg width="100%" height="100%" viewBox="0 0 800 800" version="1.1" xmlns="http://www.w3.org/2000/svg" xmlns:xlink="http://www.w3.org/1999/xlink" xml:space="preserve" xmlns:serif="http://www.serif.com/" style="fill-rule:evenodd;clip-rule:evenodd;stroke-linejoin:round;stroke-miterlimit:2;">
    <g transform="matrix(1,0,0,1,-200,-200)">
        <path d="M304.8,281.18C337.269,281.18 363.839,307.754 363.839,340.219C363.839,372.688 337.265,399.258 304.8,399.258C272.331,399.258 245.761,372.684 245.761,340.219C245.761,307.75 272.335,281.18 304.8,281.18ZM304.8,304.797C285.097,304.797 269.374,320.52 269.374,340.223C269.374,359.93 285.093,375.649 304.8,375.649C324.503,375.649 340.226,359.93 340.226,340.223C340.226,320.52 324.507,304.797 304.8,304.797Z" style="fill:#fff;fill-rule:nonzero;"/>
    </g>
    <g transform="matrix(1,0,0,1,-200,-200)">
        <path d="M399.27,393.36C418.696,393.36 434.696,409.36 434.696,428.786C434.696,448.212 418.696,464.212 399.27,464.212C379.844,464.212 363.844,448.212 363.844,428.786C363.844,409.36 379.844,393.36 399.27,393.36ZM399.27,416.977C392.61,416.977 387.461,422.125 387.461,428.786C387.461,435.446 392.609,440.595 399.27,440.595C405.931,440.595 411.079,435.451 411.079,428.786C411.079,422.126 405.931,416.977 399.27,416.977Z" style="fill:#fff;fill-rule:nonzero;"/>
    </g>
    <g transform="matrix(1,0,0,1,-200,-200)">
        <path d="M416.98,222.14C442.925,222.14 464.21,243.429 464.21,269.37C464.21,295.315 442.925,316.6 416.98,316.6C391.035,316.6 369.75,295.315 369.75,269.37C369.75,243.425 391.035,222.14 416.98,222.14ZM416.98,245.757C403.796,245.757 393.363,256.191 393.363,269.374C393.363,282.557 403.797,292.991 416.98,292.991C430.164,292.991 440.597,282.557 440.597,269.374C440.597,256.191 430.163,245.757 416.98,245.757Z" style="fill:#fff;fill-rule:nonzero;"/>
    </g>
    <g transform="matrix(1,0,0,1,-200,-200)">
        <path d="M505.54,800.79C499.021,800.79 493.731,806.079 493.731,812.599C493.731,851.587 525.59,883.447 564.579,883.447C603.568,883.447 635.427,851.588 635.427,812.599C635.427,806.079 630.142,800.79 623.618,800.79L505.54,800.79ZM518.685,824.313L610.197,824.313C604.892,844.915 586.185,859.739 564.58,859.739C542.975,859.739 523.92,844.927 518.685,824.223L518.685,824.313Z" style="fill:#fff;fill-rule:nonzero;"/>
    </g>
    <g transform="matrix(1,0,0,1,-200,-200)">
        <path d="M399.27,493.77C353.758,493.77 316.614,530.918 316.614,576.426L316.614,647.274C316.614,692.786 353.759,729.93 399.27,729.93L461.168,729.93C485.289,729.93 508.199,719.418 523.898,701.102L564.582,653.594L605.266,701.102C620.965,719.418 643.875,729.93 667.996,729.93L729.894,729.93C775.406,729.93 812.55,692.785 812.55,647.274L812.55,576.426C812.55,530.918 775.405,493.77 729.894,493.77L399.27,493.77ZM399.27,517.387L729.89,517.387C762.636,517.387 788.929,543.68 788.929,576.426L788.929,647.274C788.929,680.024 762.636,706.313 729.89,706.313L667.992,706.313C650.75,706.313 634.426,698.786 623.203,685.696L573.527,627.809L573.527,627.813C571.281,625.207 568.015,623.707 564.578,623.707C561.14,623.707 557.871,625.207 555.629,627.813L505.953,685.7C494.73,698.79 478.41,706.317 461.164,706.317L399.266,706.317C366.52,706.317 340.227,680.024 340.227,647.278L340.227,576.43C340.227,543.684 366.52,517.391 399.266,517.391L399.27,517.387Z" style="fill:#fff;"/>
    </g>
    <g transform="matrix(1,0,0,1,-200,-200)">
        <path d="M399.91,540.91C396.848,540.996 393.933,542.269 391.793,544.461L368.406,567.844L368.406,567.848C366.128,570.047 364.828,573.07 364.796,576.238C364.769,579.406 366.015,582.453 368.257,584.695C370.496,586.938 373.542,588.184 376.71,588.152C379.878,588.125 382.906,586.824 385.105,584.547L408.492,561.16L408.488,561.16C411.965,557.761 413.004,552.582 411.109,548.109C409.211,543.632 404.769,540.777 399.91,540.91L399.91,540.91Z" style="fill:#fff;"/>
    </g>
    <g transform="matrix(1,0,0,1,-200,-200)">
        <path d="M435.43,546.68C432.36,546.774 429.45,548.067 427.313,550.274L415.782,561.852C413.501,564.051 412.204,567.074 412.172,570.242C412.145,573.41 413.391,576.457 415.633,578.699C417.872,580.942 420.918,582.188 424.086,582.156C427.254,582.129 430.278,580.828 432.481,578.551L444.012,566.973C447.52,563.578 448.578,558.379 446.68,553.883C444.778,549.387 440.309,546.523 435.43,546.68L435.43,546.68Z" style="fill:#fff;"/>
    </g>
    <g transform="matrix(1,0,0,1,-200,-200)">
        <path d="M859.78,399.31L859.78,848.02C859.78,881.149 833.866,907.059 800.741,907.059L635.431,907.059C615.298,907.059 600.005,891.77 600.005,871.633L576.388,871.633C576.388,904.231 602.833,930.672 635.427,930.672L800.737,930.672C846.425,930.672 883.393,893.707 883.393,848.016L883.393,399.306L859.78,399.31ZM907.01,399.31L907.01,848.06C907.459,906.443 859.229,954.24 800.74,954.24L635.43,954.24C589.996,954.24 552.774,917.017 552.774,871.584L529.157,871.584C529.157,929.936 577.079,977.854 635.427,977.854L800.737,977.854C872.085,977.854 931.127,919.409 930.627,847.964L930.627,399.354L907.01,399.31Z" style="fill:#fff;"/>
    </g>
    <g transform="matrix(1,0,0,1,-200,-200)">
        <path d="M836.16,340.27L836.16,375.696C836.16,395.122 852.16,411.122 871.586,411.122L918.816,411.122C938.242,411.122 954.242,395.122 954.242,375.696L954.242,340.27L836.16,340.27ZM859.777,363.887L930.625,363.887L930.625,375.696C930.625,382.356 925.477,387.505 918.816,387.505L871.586,387.505C864.926,387.505 859.777,382.361 859.777,375.696L859.777,363.887Z" style="fill:#fff;"/>
    </g>
    <g transform="matrix(1,0,0,1,-200,-200)">
        <rect x="517.34" y="753.55" width="94.465" height="23.617" style="fill:#fff;"/>
    </g>
</svg>
