<?xml version="1.0" encoding="UTF-8" standalone="no"?>
<!DOCTYPE svg PUBLIC "-//W3C//DTD SVG 1.1//EN" "http://www.w3.org/Graphics/SVG/1.1/DTD/svg11.dtd">
<svg width="100%" height="100%" viewBox="0 0 1200 1200" version="1.1" xmlns="http://www.w3.org/2000/svg" xmlns:xlink="http://www.w3.org/1999/xlink" xml:space="preserve" xmlns:serif="http://www.serif.com/" style="fill-rule:evenodd;clip-rule:evenodd;stroke-linejoin:round;stroke-miterlimit:2;">
    <g>
        <path d="M891.52,465.86C891.52,505.743 859.055,538.204 819.012,538.204L380.982,538.204C341.103,538.204 308.638,505.739 308.638,465.86C308.638,425.813 341.103,393.348 380.982,393.348L819.012,393.348C859.059,393.348 891.52,425.813 891.52,465.86Z" style="fill:#fff;fill-rule:nonzero;"/>
        <path d="M835.33,307.82L835.33,361.707C830.057,360.883 824.619,360.387 819.014,360.387L380.984,360.387C375.547,360.387 370.109,360.883 364.836,361.707L364.836,307.82C364.836,178.12 470.306,72.66 599.996,72.66C729.686,72.66 835.326,178.13 835.326,307.82L835.33,307.82Z" style="fill:#fff;fill-rule:nonzero;"/>
        <path d="M531.77,571.16L531.77,788.69C531.77,834.174 494.856,871.252 449.208,871.252L445.415,871.252C399.931,871.252 362.853,834.174 362.853,788.69L362.853,769.245C362.853,741.89 340.607,719.643 313.251,719.643C285.892,719.643 263.649,741.889 263.649,769.245L263.649,854.772C263.649,863.834 256.231,871.252 247.169,871.252C238.103,871.252 230.689,863.838 230.689,854.772L230.689,769.245C230.689,723.761 267.767,686.683 313.251,686.683C358.731,686.683 395.813,723.761 395.813,769.245L395.813,788.69C395.813,816.045 418.059,838.292 445.415,838.292L449.208,838.292C476.563,838.292 498.81,816.046 498.81,788.69L498.81,571.16L531.77,571.16Z" style="fill:#fff;fill-rule:nonzero;"/>
        <path d="M969.3,769.25L969.3,854.777C969.3,863.84 962.05,871.257 952.82,871.257C943.754,871.257 936.34,863.843 936.34,854.777L936.34,769.25C936.34,741.895 914.094,719.648 886.738,719.648C859.383,719.648 837.136,741.894 837.136,769.25L837.136,788.695C837.136,834.179 800.222,871.257 754.738,871.257L750.785,871.257C705.301,871.257 668.223,834.179 668.223,788.695L668.223,571.165L701.184,571.165L701.184,788.695C701.184,816.05 723.43,838.297 750.786,838.297L754.739,838.297C782.094,838.297 804.177,816.051 804.177,788.695L804.177,769.25C804.177,723.766 841.255,686.688 886.739,686.688C932.384,686.684 969.301,723.762 969.301,769.25L969.3,769.25Z" style="fill:#fff;fill-rule:nonzero;"/>
        <path d="M616.48,571.16L616.48,1110.86C616.48,1119.92 609.066,1127.34 600,1127.34C590.934,1127.34 583.52,1119.93 583.52,1110.86L583.52,571.16L616.48,571.16Z" style="fill:#fff;fill-rule:nonzero;"/>
        <path d="M706.17,1061.2C697.061,1061.2 689.69,1053.83 689.69,1044.72L689.69,933.85C689.69,924.741 697.061,917.37 706.17,917.37C715.279,917.37 722.65,924.741 722.65,933.85L722.65,1044.72C722.654,1053.83 715.283,1061.2 706.17,1061.2Z" style="fill:#fff;fill-rule:nonzero;"/>
        <path d="M515.37,1061.2C506.261,1061.2 498.89,1053.83 498.89,1044.72L498.89,933.85C498.89,924.741 506.261,917.37 515.37,917.37C524.479,917.37 531.85,924.741 531.85,933.85L531.85,1044.72C531.846,1053.83 524.475,1061.2 515.37,1061.2Z" style="fill:#fff;fill-rule:nonzero;"/>
    </g>
</svg>
