<?xml version="1.0" encoding="UTF-8"?>
<svg width="1200pt" height="1200pt" version="1.1" viewBox="0 0 1200 1200" xmlns="http://www.w3.org/2000/svg">
 <g>
  <path d="m458.71 681.92c18.957 0.17578 29.082 0.23828 35.25 0.23828 5.5625 0 7.8984-0.050781 10.57-0.10156 4.7891-0.10156 10.715-0.24609 38.676-0.125h0.58203c23.297 0 39.816-5.1719 50.492-15.805 2.3008-2.2969 4.1172-4.7695 5.7188-7.3047 1.6016 2.5352 3.418 5.0078 5.7227 7.3047 10.762 10.723 27.613 15.422 51.074 15.805 27.992-0.125 33.875 0.019531 38.676 0.125 2.6797 0.050781 5.0078 0.10156 10.57 0.10156 6.1719 0 16.297-0.0625 35.254-0.23828 50.871-0.47266 111.14-26.848 113.58-99.59 1.5234-45.887-14.414-71.766-28.055-85.395-10.215-10.211-22.938-16.836-35.094-18.977 12.074-71.406-2.3359-168.9-38.898-203.17-28.941-27.137-62.375-33.473-83.18-34.477 15.367-19.645 24.027-44.969 24.027-72.176 0-59.629-42.023-108.14-93.68-108.14s-93.68 48.508-93.68 108.13c0 27.203 8.6602 52.527 24.027 72.172-20.801 1.0039-54.223 7.3359-83.188 34.484-36.551 34.273-50.969 131.74-38.902 203.14-12.285 2.1094-24.844 8.7617-35.094 19.012-13.641 13.625-29.574 39.504-28.039 85.391 2.4414 72.738 62.715 99.113 113.59 99.586zm356.93-173.79c11.414 11.414 24.758 33.461 23.406 73.676-2.6562 79.379-82.027 84.148-97.902 84.293-35.645 0.33984-39.746 0.26953-45.352 0.13281-4.8438-0.10156-10.84-0.23828-39.066-0.125h-0.50391c-18.648 0-31.887-3.7617-39.332-11.188-6.2109-6.1914-8.9844-15.297-8.9844-29.527 0-44.824 42.301-46.477 47.152-46.52 0.36328 0 0.67188-0.16406 1.0234-0.21094 53.902-1.4375 90.977-13.152 109.93-35.215 10.168-11.828 17.641-29.398 22.582-50.055 7.9688 1.2383 17.812 5.5234 27.043 14.738zm-215.64 58.273c3.5977 4.5391 8.4766 8.0547 14.473 10.125-5.5938 4.2227-10.598 9.6523-14.473 16.461-3.875-6.8086-8.8828-12.238-14.473-16.465 5.9922-2.0703 10.875-5.582 14.473-10.121zm-142.01-280.07c39.199-36.738 89.527-29.836 90.016-29.77 4.2891 0.66797 8.3438-2.3398 8.9844-6.6562 0.41797-2.7812-0.76172-5.3359-2.7383-7.0508l0.03125-0.039063c-20.125-17.359-32.137-45.277-32.137-74.691 0-50.898 34.926-92.309 77.855-92.309s77.855 41.41 77.855 92.309c0 29.414-12.012 57.332-32.145 74.691l0.03125 0.039063c-1.9727 1.7148-3.1523 4.2695-2.7422 7.0508 0.64844 4.3164 4.7305 7.3242 8.9844 6.6562 0.50391-0.085937 50.82-6.9844 90.031 29.77 44.082 41.328 51.832 200.48 12.012 246.8-12.949 15.059-45.297 32.348-125.44 29.707l-3.0195-0.097656c-12.199-0.26953-17.656-10.055-17.656-19.637 0-7.2109 0.66797-17.457 6.4375-23.133 3.4531-3.3945 8.3125-5.0977 15.641-4.8789 29.207 0.40234 52.758-7.293 68.82-23.109 15.691-15.438 23.645-37.535 23.645-65.676 0-42.969-17.801-59.578-28.402-65.652-3.8203-2.1953-8.6445-0.85937-10.797 2.9375-2.1719 3.793-0.86719 8.6211 2.9258 10.797 7.6445 4.375 20.449 16.934 20.449 51.918 0 23.742-6.3672 42.043-18.914 54.402-12.93 12.723-32.574 19.219-57.477 18.559-11.199-0.046875-20.449 2.9844-26.988 9.4219-1.2109 1.1914-2.2852 2.4609-3.25 3.7734-0.96484-1.3164-2.0391-2.582-3.25-3.7773-6.5312-6.4297-15.5-9.6289-26.988-9.4219-25.211 0.50391-44.547-5.8398-57.473-18.559-12.555-12.359-18.922-30.66-18.922-54.402 0-34.984 12.812-47.543 20.445-51.918 3.793-2.1719 5.1055-7.0039 2.9375-10.797-2.1797-3.7969-7.0195-5.0977-10.797-2.9375-10.609 6.0742-28.41 22.68-28.41 65.652 0 28.141 7.9531 50.238 23.645 65.676 16.066 15.809 39.199 23.469 68.824 23.109 7-0.26172 12.184 1.4766 15.633 4.8711 5.7695 5.6836 6.4375 15.926 6.4375 23.141 0 9.582-5.4609 19.367-17.664 19.637l-3.0195 0.097656c-80.152 2.7109-112.48-14.645-125.43-29.707-39.812-46.316-32.07-205.47 12.016-246.8zm-73.633 221.8c9.1758-9.168 19.211-13.406 27.055-14.688 4.9414 20.637 12.414 38.188 22.574 50.004 18.969 22.07 56.039 33.781 109.95 35.215 0.35156 0.050781 0.66406 0.21094 1.0312 0.21094 1.9219 0.003906 47.129 0.62891 47.129 46.52 0 14.227-2.7695 23.336-8.9766 29.527-7.4531 7.4297-20.688 11.188-39.332 11.188h-0.51562c-28.254-0.125-34.23 0.019531-39.062 0.125-5.5898 0.125-9.6523 0.19531-45.344-0.13281-15.879-0.14453-95.25-4.9141-97.91-84.293-1.3555-40.223 11.977-62.266 23.402-73.676z"/>
  <path d="m590.09 161.28c1.6055-3.2695 0.25781-7.2227-3.0078-8.8281-3.2539-1.5898-7.2148-0.25391-8.8281 3.0117-0.050781 0.10937-5.5312 10.965-17.816 10.965-12.934 0-17.164-9.4102-17.582-10.422-1.2969-3.3945-5.0859-5.0938-8.5156-3.7969-3.3984 1.2969-5.0977 5.1094-3.7969 8.5156 0.29297 0.76562 7.4844 18.891 29.891 18.891 20.41 0 29.285-17.59 29.656-18.336z"/>
  <path d="m639.56 179.61c22.406 0 29.598-18.121 29.898-18.895 1.2891-3.375-0.39062-7.1172-3.75-8.4492-3.3164-1.3125-7.1797 0.32422-8.5391 3.6719-0.44141 1.0703-4.668 10.484-17.605 10.484-12.031 0-17.566-10.477-17.832-11.008-1.6172-3.2305-5.5547-4.5586-8.8086-2.9727-3.2695 1.6055-4.6211 5.5586-3.0117 8.8281 0.36719 0.75 9.2422 18.34 29.648 18.34z"/>
  <path d="m418.02 743.08c0 8.7383-7.0859 15.824-15.824 15.824-8.7422 0-15.824-7.0859-15.824-15.824 0-8.7422 7.082-15.824 15.824-15.824 8.7383 0 15.824 7.082 15.824 15.824"/>
  <path d="m497.14 743.08c0 8.7383-7.0859 15.824-15.824 15.824-8.7422 0-15.824-7.0859-15.824-15.824 0-8.7422 7.082-15.824 15.824-15.824 8.7383 0 15.824 7.082 15.824 15.824"/>
  <path d="m576.27 743.08c0 8.7383-7.0859 15.824-15.824 15.824-8.7422 0-15.824-7.0859-15.824-15.824 0-8.7422 7.082-15.824 15.824-15.824 8.7383 0 15.824 7.082 15.824 15.824"/>
  <path d="m655.38 743.08c0 8.7383-7.082 15.824-15.824 15.824-8.7383 0-15.824-7.0859-15.824-15.824 0-8.7422 7.0859-15.824 15.824-15.824 8.7422 0 15.824 7.082 15.824 15.824"/>
  <path d="m734.5 743.08c0 8.7383-7.082 15.824-15.824 15.824-8.7383 0-15.824-7.0859-15.824-15.824 0-8.7422 7.0859-15.824 15.824-15.824 8.7422 0 15.824 7.082 15.824 15.824"/>
  <path d="m813.62 743.08c0 8.7383-7.082 15.824-15.824 15.824-8.7383 0-15.824-7.0859-15.824-15.824 0-8.7422 7.0859-15.824 15.824-15.824 8.7422 0 15.824 7.082 15.824 15.824"/>
  <path d="m418.02 795.82c0 8.7383-7.0859 15.824-15.824 15.824-8.7422 0-15.824-7.0859-15.824-15.824s7.082-15.824 15.824-15.824c8.7383 0 15.824 7.0859 15.824 15.824"/>
  <path d="m497.14 795.82c0 8.7383-7.0859 15.824-15.824 15.824-8.7422 0-15.824-7.0859-15.824-15.824s7.082-15.824 15.824-15.824c8.7383 0 15.824 7.0859 15.824 15.824"/>
  <path d="m576.27 795.82c0 8.7383-7.0859 15.824-15.824 15.824-8.7422 0-15.824-7.0859-15.824-15.824s7.082-15.824 15.824-15.824c8.7383 0 15.824 7.0859 15.824 15.824"/>
  <path d="m655.38 795.82c0 8.7383-7.082 15.824-15.824 15.824-8.7383 0-15.824-7.0859-15.824-15.824s7.0859-15.824 15.824-15.824c8.7422 0 15.824 7.0859 15.824 15.824"/>
  <path d="m734.5 795.82c0 8.7383-7.082 15.824-15.824 15.824-8.7383 0-15.824-7.0859-15.824-15.824s7.0859-15.824 15.824-15.824c8.7422 0 15.824 7.0859 15.824 15.824"/>
  <path d="m813.62 795.82c0 8.7383-7.082 15.824-15.824 15.824-8.7383 0-15.824-7.0859-15.824-15.824s7.0859-15.824 15.824-15.824c8.7422 0 15.824 7.0859 15.824 15.824"/>
  <path d="m418.02 848.57c0 8.7422-7.0859 15.824-15.824 15.824-8.7422 0-15.824-7.082-15.824-15.824 0-8.7383 7.082-15.824 15.824-15.824 8.7383 0 15.824 7.0859 15.824 15.824"/>
  <path d="m497.14 848.57c0 8.7422-7.0859 15.824-15.824 15.824-8.7422 0-15.824-7.082-15.824-15.824 0-8.7383 7.082-15.824 15.824-15.824 8.7383 0 15.824 7.0859 15.824 15.824"/>
  <path d="m576.27 848.57c0 8.7422-7.0859 15.824-15.824 15.824-8.7422 0-15.824-7.082-15.824-15.824 0-8.7383 7.082-15.824 15.824-15.824 8.7383 0 15.824 7.0859 15.824 15.824"/>
  <path d="m655.38 848.57c0 8.7422-7.082 15.824-15.824 15.824-8.7383 0-15.824-7.082-15.824-15.824 0-8.7383 7.0859-15.824 15.824-15.824 8.7422 0 15.824 7.0859 15.824 15.824"/>
  <path d="m734.5 848.57c0 8.7422-7.082 15.824-15.824 15.824-8.7383 0-15.824-7.082-15.824-15.824 0-8.7383 7.0859-15.824 15.824-15.824 8.7422 0 15.824 7.0859 15.824 15.824"/>
  <path d="m813.62 848.57c0 8.7422-7.082 15.824-15.824 15.824-8.7383 0-15.824-7.082-15.824-15.824 0-8.7383 7.0859-15.824 15.824-15.824 8.7422 0 15.824 7.0859 15.824 15.824"/>
  <path d="m418.02 901.32c0 8.7383-7.0859 15.824-15.824 15.824-8.7422 0-15.824-7.0859-15.824-15.824 0-8.7422 7.082-15.824 15.824-15.824 8.7383 0 15.824 7.082 15.824 15.824"/>
  <path d="m497.14 901.32c0 8.7383-7.0859 15.824-15.824 15.824-8.7422 0-15.824-7.0859-15.824-15.824 0-8.7422 7.082-15.824 15.824-15.824 8.7383 0 15.824 7.082 15.824 15.824"/>
  <path d="m576.27 901.32c0 8.7383-7.0859 15.824-15.824 15.824-8.7422 0-15.824-7.0859-15.824-15.824 0-8.7422 7.082-15.824 15.824-15.824 8.7383 0 15.824 7.082 15.824 15.824"/>
  <path d="m655.38 901.32c0 8.7383-7.082 15.824-15.824 15.824-8.7383 0-15.824-7.0859-15.824-15.824 0-8.7422 7.0859-15.824 15.824-15.824 8.7422 0 15.824 7.082 15.824 15.824"/>
  <path d="m734.5 901.32c0 8.7383-7.082 15.824-15.824 15.824-8.7383 0-15.824-7.0859-15.824-15.824 0-8.7422 7.0859-15.824 15.824-15.824 8.7422 0 15.824 7.082 15.824 15.824"/>
  <path d="m813.62 901.32c0 8.7383-7.082 15.824-15.824 15.824-8.7383 0-15.824-7.0859-15.824-15.824 0-8.7422 7.0859-15.824 15.824-15.824 8.7422 0 15.824 7.082 15.824 15.824"/>
  <path d="m418.02 954.07c0 8.7383-7.0859 15.824-15.824 15.824-8.7422 0-15.824-7.0859-15.824-15.824 0-8.7383 7.082-15.824 15.824-15.824 8.7383 0 15.824 7.0859 15.824 15.824"/>
  <path d="m497.14 954.07c0 8.7383-7.0859 15.824-15.824 15.824-8.7422 0-15.824-7.0859-15.824-15.824 0-8.7383 7.082-15.824 15.824-15.824 8.7383 0 15.824 7.0859 15.824 15.824"/>
  <path d="m576.27 954.07c0 8.7383-7.0859 15.824-15.824 15.824-8.7422 0-15.824-7.0859-15.824-15.824 0-8.7383 7.082-15.824 15.824-15.824 8.7383 0 15.824 7.0859 15.824 15.824"/>
  <path d="m655.38 954.07c0 8.7383-7.082 15.824-15.824 15.824-8.7383 0-15.824-7.0859-15.824-15.824 0-8.7383 7.0859-15.824 15.824-15.824 8.7422 0 15.824 7.0859 15.824 15.824"/>
  <path d="m734.5 954.07c0 8.7383-7.082 15.824-15.824 15.824-8.7383 0-15.824-7.0859-15.824-15.824 0-8.7383 7.0859-15.824 15.824-15.824 8.7422 0 15.824 7.0859 15.824 15.824"/>
  <path d="m813.62 954.07c0 8.7383-7.082 15.824-15.824 15.824-8.7383 0-15.824-7.0859-15.824-15.824 0-8.7383 7.0859-15.824 15.824-15.824 8.7422 0 15.824 7.0859 15.824 15.824"/>
  <path d="m418.02 1006.8c0 8.7383-7.0859 15.824-15.824 15.824-8.7422 0-15.824-7.0859-15.824-15.824s7.082-15.824 15.824-15.824c8.7383 0 15.824 7.0859 15.824 15.824"/>
  <path d="m497.14 1006.8c0 8.7383-7.0859 15.824-15.824 15.824-8.7422 0-15.824-7.0859-15.824-15.824s7.082-15.824 15.824-15.824c8.7383 0 15.824 7.0859 15.824 15.824"/>
  <path d="m576.27 1006.8c0 8.7383-7.0859 15.824-15.824 15.824-8.7422 0-15.824-7.0859-15.824-15.824s7.082-15.824 15.824-15.824c8.7383 0 15.824 7.0859 15.824 15.824"/>
  <path d="m655.38 1006.8c0 8.7383-7.082 15.824-15.824 15.824-8.7383 0-15.824-7.0859-15.824-15.824s7.0859-15.824 15.824-15.824c8.7422 0 15.824 7.0859 15.824 15.824"/>
  <path d="m734.5 1006.8c0 8.7383-7.082 15.824-15.824 15.824-8.7383 0-15.824-7.0859-15.824-15.824s7.0859-15.824 15.824-15.824c8.7422 0 15.824 7.0859 15.824 15.824"/>
  <path d="m813.62 1006.8c0 8.7383-7.082 15.824-15.824 15.824-8.7383 0-15.824-7.0859-15.824-15.824s7.0859-15.824 15.824-15.824c8.7422 0 15.824 7.0859 15.824 15.824"/>
  <path d="m1022 1124.2h-843.95c-4.3672 0-7.9102 3.543-7.9102 7.9102-0.003906 4.3711 3.5391 7.9141 7.9102 7.9141h843.96c4.3672 0 7.9102-3.543 7.9102-7.9102 0-4.3711-3.543-7.9141-7.9141-7.9141z"/>
 </g>
</svg>
