<?xml version="1.0" encoding="UTF-8" standalone="no"?>
<!DOCTYPE svg PUBLIC "-//W3C//DTD SVG 1.1//EN" "http://www.w3.org/Graphics/SVG/1.1/DTD/svg11.dtd">
<svg width="100%" height="100%" viewBox="0 0 726 726" version="1.1" xmlns="http://www.w3.org/2000/svg" xmlns:xlink="http://www.w3.org/1999/xlink" xml:space="preserve" xmlns:serif="http://www.serif.com/" style="fill-rule:evenodd;clip-rule:evenodd;stroke-linejoin:round;stroke-miterlimit:2;">
    <g>
        <g transform="matrix(0.859505,0,0,0.859505,50.9981,50.9964)">
            <path d="M419.174,715.897C415.799,715.759 418.468,724.31 418.243,725.981C423.478,722.96 418.605,713.659 419.174,715.897Z" style="fill:#417172;fill-opacity:0.85;fill-rule:nonzero;"/>
        </g>
        <g transform="matrix(0.859505,0,0,0.859505,50.9981,50.9964)">
            <path d="M465.56,683.166L465.862,686.919L468.013,681.417L470.066,675.946L467.838,679.548L465.56,683.166Z" style="fill:#417172;fill-opacity:0.85;fill-rule:nonzero;"/>
        </g>
        <g transform="matrix(0.859505,0,0,0.859505,50.9981,50.9964)">
            <path d="M497.528,664.895C496.637,665.828 495.746,666.847 494.827,667.84C494.368,668.336 493.905,668.825 493.43,669.295C492.948,669.747 492.451,670.167 491.948,670.557C490.126,672.212 487.68,672.999 485.236,672.72L482.615,670.049L483.147,676.444L483.615,682.867L483.617,682.867C486.033,681.239 488.33,679.441 490.49,677.484C492.77,675.461 495.072,673.431 497.234,671.372L497.234,671.374C500.486,667.522 505.097,665.069 510.109,664.531C504.624,658.819 501.091,661.146 497.527,664.895L497.528,664.895Z" style="fill:#417172;fill-opacity:0.85;fill-rule:nonzero;"/>
        </g>
        <g transform="matrix(0.859505,0,0,0.859505,50.9981,50.9964)">
            <path d="M543.096,681.654C543.706,681.831 544.299,682.055 544.876,682.325C546.377,681.313 547.986,680.474 549.673,679.82C545.105,675.703 552.242,672.349 543.096,681.654Z" style="fill:#417172;fill-opacity:0.85;fill-rule:nonzero;"/>
        </g>
        <g transform="matrix(0.859505,0,0,0.859505,50.9981,50.9964)">
            <path d="M544.875,682.319C550.537,684.68 540.293,685.578 544.875,682.319Z" style="fill:#417172;fill-opacity:0.85;fill-rule:nonzero;"/>
        </g>
        <g transform="matrix(0.859505,0,0,0.859505,50.9981,50.9964)">
            <path d="M564.665,665.621L563.124,669.844L561.536,674.091C564.728,676.14 570.705,673.049 570.093,676.537C574.846,669.814 571.433,667.942 564.665,665.621Z" style="fill:#417172;fill-opacity:0.85;fill-rule:nonzero;"/>
        </g>
        <g transform="matrix(0.859505,0,0,0.859505,50.9981,50.9964)">
            <path d="M563.86,652.674L563.038,654.673L562.163,656.623C563.534,657.455 564.678,657.334 563.86,652.674Z" style="fill:#417172;fill-opacity:0.85;fill-rule:nonzero;"/>
        </g>
        <g transform="matrix(0.859505,0,0,0.859505,50.9981,50.9964)">
            <path d="M560.157,660.055C558.134,656.007 559.335,660.412 558.316,664.93L560.264,660.776L562.164,656.647C559.897,655.239 557.033,651.238 560.157,660.055Z" style="fill:#417172;fill-opacity:0.85;fill-rule:nonzero;"/>
        </g>
        <g transform="matrix(0.859505,0,0,0.859505,50.9981,50.9964)">
            <path d="M546.521,664.472C545.686,664.048 545.126,663.226 545.039,662.295C544.982,660.721 545.278,659.154 545.902,657.705C544.805,658.698 543.796,659.785 542.891,660.953C542.208,661.846 541.671,662.841 541.3,663.902C540.66,665.36 540.868,667.052 541.841,668.309C543.042,669.434 544.741,669.85 546.325,669.404C548.988,668.806 551.425,667.452 553.339,665.504C552.053,665.372 550.756,665.344 549.581,665.237L549.579,665.237C548.52,665.183 547.48,664.923 546.521,664.472Z" style="fill:#417172;fill-opacity:0.85;fill-rule:nonzero;"/>
        </g>
        <g transform="matrix(0.859505,0,0,0.859505,50.9981,50.9964)">
            <path d="M505.042,649.468L501.918,648.621C501.147,648.418 500.351,648.161 499.765,647.986L498.786,647.683L498.07,650.852L497.323,654.036C497.706,652.455 500.235,652.381 502.397,652.173C504.541,651.935 506.266,651.486 505.042,649.468Z" style="fill:#417172;fill-opacity:0.85;fill-rule:nonzero;"/>
        </g>
        <g transform="matrix(0.859505,0,0,0.859505,50.9981,50.9964)">
            <path d="M594.606,636.884C594.464,637.477 594.287,638.287 594.07,639.055L593.224,642.173C596.823,642.156 602.029,640.098 605.506,643.404C603.686,640.693 597.953,638.649 594.835,635.888L594.606,636.884Z" style="fill:#417172;fill-opacity:0.85;fill-rule:nonzero;"/>
        </g>
        <g transform="matrix(0.859505,0,0,0.859505,50.9981,50.9964)">
            <path d="M596.972,626.477C591.39,630.696 592.174,633.523 594.842,635.892L595.932,631.168L596.972,626.477Z" style="fill:#417172;fill-opacity:0.85;fill-rule:nonzero;"/>
        </g>
        <g transform="matrix(0.859505,0,0,0.859505,50.9981,50.9964)">
            <path d="M554.519,640.937C554.249,642.535 553.793,644.557 553.344,646.628C552.441,650.754 551.439,654.937 551.439,654.937C551.439,654.937 552.926,650.376 554.29,645.888C554.996,643.669 555.585,641.339 556.038,639.627L556.78,636.775L554.991,638.318L554.519,640.937Z" style="fill:#417172;fill-opacity:0.85;fill-rule:nonzero;"/>
        </g>
        <g transform="matrix(0.859505,0,0,0.859505,50.9981,50.9964)">
            <path d="M627.99,616.616L628.337,621.907L628.685,623.243L629.408,626.161L630.429,630.434C630.429,630.434 629.897,626.962 629.313,623.538C628.678,620.055 627.99,616.616 627.99,616.616Z" style="fill:#417172;fill-opacity:0.85;fill-rule:nonzero;"/>
        </g>
        <g transform="matrix(0.859505,0,0,0.859505,50.9981,50.9964)">
            <path d="M641.179,605.545C642.316,608.199 644.825,610.009 647.704,610.252C650.223,610.843 652.525,611.231 652.783,613.906L652.783,613.908C655.068,607.903 655.363,601.321 653.622,595.137C652.882,600.428 649.074,603.902 641.179,605.545Z" style="fill:#417172;fill-opacity:0.85;fill-rule:nonzero;"/>
        </g>
        <g transform="matrix(0.859505,0,0,0.859505,50.9981,50.9964)">
            <path d="M652.492,585.077C652.535,588.452 652.93,591.813 653.669,595.107C654.062,591.718 653.658,588.284 652.492,585.077Z" style="fill:#417172;fill-opacity:0.85;fill-rule:nonzero;"/>
        </g>
        <g transform="matrix(0.859505,0,0,0.859505,50.9981,50.9964)">
            <path d="M610.021,616.374L607.743,618.47L607.746,618.468C610.924,620.708 614.918,621.46 618.695,620.526L614.347,618.465L610.021,616.374Z" style="fill:#417172;fill-opacity:0.85;fill-rule:nonzero;"/>
        </g>
        <g transform="matrix(0.859505,0,0,0.859505,50.9981,50.9964)">
            <path d="M609.719,616.253L609.998,616.376C612.229,614.398 613.878,612.987 614.767,612.25C613.968,612.902 612.397,614.147 609.719,616.253Z" style="fill:#417172;fill-opacity:0.85;fill-rule:nonzero;"/>
        </g>
        <g transform="matrix(0.859505,0,0,0.859505,50.9981,50.9964)">
            <path d="M607.178,618.975C607.395,618.786 607.554,618.649 607.752,618.451C606.906,618.018 606.58,617.94 607.178,618.975Z" style="fill:#417172;fill-opacity:0.85;fill-rule:nonzero;"/>
        </g>
        <g transform="matrix(0.859505,0,0,0.859505,50.9981,50.9964)">
            <path d="M567.538,615.708C568.448,618.497 570.081,620.997 572.272,622.95C574.72,625.589 575.933,629.146 575.607,632.731C576.122,629.111 576.275,625.448 576.067,621.797C575.474,618.441 573.331,615.94 567.538,615.709L567.538,615.708Z" style="fill:#417172;fill-opacity:0.85;fill-rule:nonzero;"/>
        </g>
        <g transform="matrix(0.859505,0,0,0.859505,50.9981,50.9964)">
            <path d="M595.58,618.794L596.294,615.188L596.568,613.517L595.45,614.174L592.919,615.53L589.246,617.482C590.979,619.146 594.453,620.715 594.495,624.081L595.58,618.794Z" style="fill:#417172;fill-opacity:0.85;fill-rule:nonzero;"/>
        </g>
        <g transform="matrix(0.859505,0,0,0.859505,50.9981,50.9964)">
            <path d="M597.329,608.69L596.558,613.547L599.219,611.973L597.329,608.69Z" style="fill:#417172;fill-opacity:0.85;fill-rule:nonzero;"/>
        </g>
        <g transform="matrix(0.859505,0,0,0.859505,50.9981,50.9964)">
            <path d="M634.403,583.341C632.571,584.858 630.894,586.55 629.393,588.394C631.184,590.696 633.805,595.573 636.828,591.374L636.828,591.376C636.464,589.112 636.71,586.791 637.537,584.655C638.324,582.661 639.267,580.73 640.359,578.884C639.293,579.567 638.265,580.283 637.277,581.032C636.289,581.782 635.355,582.571 634.403,583.341Z" style="fill:#417172;fill-opacity:0.85;fill-rule:nonzero;"/>
        </g>
        <g transform="matrix(0.859505,0,0,0.859505,50.9981,50.9964)">
            <path d="M623.332,603.3C623.339,602.974 623.485,602.674 623.483,602.359C622.571,602.208 622.133,602.343 623.332,603.3Z" style="fill:#417172;fill-opacity:0.85;fill-rule:nonzero;"/>
        </g>
        <g transform="matrix(0.859505,0,0,0.859505,50.9981,50.9964)">
            <path d="M662.777,542.419C663.198,542.726 663.626,543.019 664.051,543.35L664.562,542.648C664.013,542.608 663.354,542.468 662.777,542.419Z" style="fill:#417172;fill-opacity:0.85;fill-rule:nonzero;"/>
        </g>
        <g transform="matrix(0.859505,0,0,0.859505,50.9981,50.9964)">
            <path d="M627.566,587.921C623.979,589.518 624.357,592.553 625.17,595.935L625.168,595.935C626.184,593.222 627.604,590.679 629.377,588.388C628.561,587.339 627.938,586.758 627.566,587.921Z" style="fill:#417172;fill-opacity:0.85;fill-rule:nonzero;"/>
        </g>
        <g transform="matrix(0.859505,0,0,0.859505,50.9981,50.9964)">
            <path d="M654.428,574.381C656.106,574.017 657.175,573.386 656.392,572.434L656.392,572.436C655.083,572.682 653.79,573.008 652.521,573.41C651.238,573.795 649.948,574.22 648.688,574.693C650.607,574.818 652.535,574.714 654.428,574.381Z" style="fill:#417172;fill-opacity:0.85;fill-rule:nonzero;"/>
        </g>
        <g transform="matrix(0.859505,0,0,0.859505,50.9981,50.9964)">
            <path d="M626.175,603.13C626.175,603.357 626.156,603.582 626.116,603.802C628.356,604.199 627.553,603.686 626.175,603.13Z" style="fill:#417172;fill-opacity:0.85;fill-rule:nonzero;"/>
        </g>
        <g transform="matrix(0.859505,0,0,0.859505,50.9981,50.9964)">
            <path d="M626.175,603.131C626.234,600.694 625.891,598.265 625.161,595.939C624.261,597.976 623.694,600.146 623.483,602.362C624.407,602.516 625.31,602.774 626.175,603.131Z" style="fill:#417172;fill-opacity:0.85;fill-rule:nonzero;"/>
        </g>
        <g transform="matrix(0.859505,0,0,0.859505,50.9981,50.9964)">
            <path d="M658.603,538.595C657.114,535.714 656.334,532.519 656.33,529.275C652.484,530.314 648.699,531.56 644.986,533.004C640.72,534.138 636.795,533.968 635.159,529.322L635.159,529.324C635.289,527.422 635.875,525.578 636.866,523.95C637.523,523.002 638.567,522.395 639.716,522.291C642.509,522.421 645.307,522.194 648.042,521.615C642.45,520.946 640.635,516.295 638.289,511.328L638.289,511.33C637.157,508.676 635.654,506.195 633.82,503.966C631.619,501.421 628.772,499.516 625.577,498.455L625.787,499.972C625.919,500.887 626.082,502.106 626.184,503.302L626.64,508.151C624.459,507.14 622.466,502.794 619.468,503.725L619.468,503.723C622.951,505.734 625.303,509.248 625.827,513.235C625.991,514.979 625.419,516.711 624.251,518.018C622.583,519.559 620.43,520.474 618.164,520.604C619.107,525.132 625.991,530.163 634.768,534.28C643.621,538.418 653.059,541.162 662.749,542.419C661.092,541.481 659.672,540.171 658.604,538.595L658.603,538.595Z" style="fill:#417172;fill-opacity:0.85;fill-rule:nonzero;"/>
        </g>
        <g transform="matrix(0.859505,0,0,0.859505,50.9981,50.9964)">
            <path d="M664.048,543.351L659.25,550.152C658.05,551.844 656.847,553.539 655.947,554.805C655.5,555.441 655.079,555.94 654.808,556.304L654.368,556.866L653.952,555.231L652.959,558.587L652.957,558.591C654.817,557.362 656.906,556.531 659.099,556.145C661.604,555.585 664.743,555.219 668.904,554.711C669.16,550.372 667.361,546.163 664.048,543.351Z" style="fill:#417172;fill-opacity:0.85;fill-rule:nonzero;"/>
        </g>
        <g transform="matrix(0.859505,0,0,0.859505,50.9981,50.9964)">
            <path d="M646.866,566.583L645.755,568.709L644.47,571.059L644.472,571.059C643.137,569.307 642.012,567.403 641.123,565.387C640.225,563.489 639.471,561.653 638.559,560.001L638.561,560.001C636.72,556.246 633.079,553.7 628.921,553.263C628.409,554.123 628,555.04 627.702,555.997C627.454,556.72 627.319,557.474 627.3,558.238C627.324,559.542 627.674,560.821 628.321,561.953C630.02,564.28 631.018,567.048 631.19,569.924C634.867,563.073 635.238,564.704 636.044,567.322C636.853,569.934 638.027,573.623 643.541,570.541L643.543,570.543C642.971,573.486 641.894,576.307 640.355,578.878C642.988,577.217 645.777,575.816 648.681,574.693C648.421,574.686 648.235,574.679 647.998,574.658L647.965,574.728L647.878,574.646C646.531,574.528 645.829,574.301 646.824,574.055C646.772,573.951 646.859,573.774 646.871,573.677L646.873,573.679C646.001,572.897 645.21,572.03 644.515,571.089C648.799,568.475 646.873,571.869 646.873,573.679C647.221,573.996 647.49,574.346 647.88,574.648L648.001,574.66L648.866,572.176C649.388,570.69 649.962,568.636 650.581,566.625L652.966,558.59L652.966,558.587C651.34,559.816 649.964,561.343 648.91,563.087C648.251,564.096 647.582,565.252 646.866,566.583Z" style="fill:#417172;fill-opacity:0.85;fill-rule:nonzero;"/>
        </g>
        <g transform="matrix(0.859505,0,0,0.859505,50.9981,50.9964)">
            <path d="M560.508,595.858C561.184,596.135 561.78,596.579 562.241,597.146C562.167,595.7 561.91,594.904 560.508,595.858Z" style="fill:#417172;fill-opacity:0.85;fill-rule:nonzero;"/>
        </g>
        <g transform="matrix(0.859505,0,0,0.859505,50.9981,50.9964)">
            <path d="M587.171,606.27C587.743,606.653 588.322,607.046 588.917,607.452C588.901,607.1 588.246,606.689 587.171,606.27Z" style="fill:#417172;fill-opacity:0.85;fill-rule:nonzero;"/>
        </g>
        <g transform="matrix(0.859505,0,0,0.859505,50.9981,50.9964)">
            <path d="M567.248,602.592C563.271,602.505 564.362,599.295 562.243,597.147C562.136,599.127 562.318,601.115 562.781,603.043C563.448,604.918 565.145,606.43 568.995,605.91L568.921,604.282L568.921,604.284C573.015,603.67 577.188,603.819 581.23,604.724C583.25,605.069 585.238,605.589 587.169,606.274C581.331,602.193 575.056,598.775 568.463,596.081C568.562,597.707 570.375,601.001 567.248,602.592Z" style="fill:#417172;fill-opacity:0.85;fill-rule:nonzero;"/>
        </g>
        <g transform="matrix(0.859505,0,0,0.859505,50.9981,50.9964)">
            <path d="M609.537,572.112C609.537,572.112 607.028,572.048 604.518,571.985C602.029,571.89 599.545,571.798 599.545,571.798L603.362,574.643C602.266,575.312 601.382,576.281 600.817,577.437C600.545,578.252 600.656,579.15 601.119,579.876C601.982,581.438 603.873,582.896 604.948,584.434L605.723,582.53C606.189,581.39 606.813,579.88 607.347,578.306L609.537,572.112Z" style="fill:#417172;fill-opacity:0.85;fill-rule:nonzero;"/>
        </g>
        <g transform="matrix(0.859505,0,0,0.859505,50.9981,50.9964)">
            <path d="M668.707,536.405L669.026,539.995L669.234,542.479C669.293,543.162 669.316,543.608 669.316,543.608L676.756,550.001C676.756,550.001 674.868,546.584 672.807,543.161C670.779,539.746 668.707,536.405 668.707,536.405Z" style="fill:#417172;fill-opacity:0.85;fill-rule:nonzero;"/>
        </g>
        <g transform="matrix(0.859505,0,0,0.859505,50.9981,50.9964)">
            <path d="M682.622,528.812L681.381,525.572L676.666,527.661L683.822,532.067L683.465,531.055L682.622,528.812Z" style="fill:#417172;fill-opacity:0.85;fill-rule:nonzero;"/>
        </g>
        <g transform="matrix(0.859505,0,0,0.859505,50.9981,50.9964)">
            <path d="M190.708,172.455L190.621,173.018C191.081,171.881 191.287,170.657 191.223,169.433L190.916,171.229L190.708,172.455Z" style="fill:#417172;fill-opacity:0.85;fill-rule:nonzero;"/>
        </g>
        <g transform="matrix(0.859505,0,0,0.859505,50.9981,50.9964)">
            <path d="M207.545,157.342L205.525,153.677C206.094,156.104 206.784,157.697 207.545,157.342Z" style="fill:#417172;fill-opacity:0.85;fill-rule:nonzero;"/>
        </g>
        <g transform="matrix(0.859505,0,0,0.859505,50.9981,50.9964)">
            <path d="M625.207,126.681C627.27,117.268 631.55,103.923 625.16,110.949L619.658,118.575L619.656,118.577C621.258,119.255 622.633,120.38 623.616,121.817C624.6,123.251 625.15,124.942 625.207,126.681Z" style="fill:#417172;fill-opacity:0.85;fill-rule:nonzero;"/>
        </g>
        <g transform="matrix(0.859505,0,0,0.859505,50.9981,50.9964)">
            <path d="M365.13,60.56L366.462,63.359C367.769,60.263 368.998,57.349 370.095,54.75C368.573,56.567 366.876,58.412 365.13,60.56Z" style="fill:#417172;fill-opacity:0.85;fill-rule:nonzero;"/>
        </g>
        <g transform="matrix(0.859505,0,0,0.859505,50.9981,50.9964)">
            <path d="M361.07,98.657L358.284,95.665L355.434,92.669C356.927,94.997 358.839,97.027 361.07,98.657Z" style="fill:#417172;fill-opacity:0.85;fill-rule:nonzero;"/>
        </g>
        <g transform="matrix(0.859505,0,0,0.859505,50.9981,50.9964)">
            <path d="M139.489,267.053L140.642,268.09C141.049,267.301 141.134,266.384 140.883,265.533C140.538,264.843 139.964,264.293 139.262,263.974C137.714,263.123 135.403,262.541 133.399,261.402L136.977,264.758L139.489,267.053Z" style="fill:#417172;fill-opacity:0.85;fill-rule:nonzero;"/>
        </g>
        <g transform="matrix(0.859505,0,0,0.859505,50.9981,50.9964)">
            <path d="M712.448,354.627C715.201,350.931 716.936,346.575 717.472,341.997C712.472,348.386 704.722,353.279 712.448,354.627Z" style="fill:#417172;fill-opacity:0.85;fill-rule:nonzero;"/>
        </g>
        <g transform="matrix(0.859505,0,0,0.859505,50.9981,50.9964)">
            <path d="M136.403,87.882C135.548,90.054 135.916,92.517 137.37,94.344C138.237,91.591 138.207,89.334 136.403,87.882Z" style="fill:#417172;fill-opacity:0.85;fill-rule:nonzero;"/>
        </g>
        <g transform="matrix(0.859505,0,0,0.859505,50.9981,50.9964)">
            <path d="M717.469,342C719.325,339.966 720.48,337.392 720.771,334.655C720.712,331.633 718.944,328.905 716.207,327.617C715.524,328.529 714.886,329.475 714.3,330.451C715.269,332.169 716.073,333.972 716.706,335.839C717.384,337.817 717.647,339.916 717.469,342Z" style="fill:#417172;fill-opacity:0.85;fill-rule:nonzero;"/>
        </g>
        <g transform="matrix(0.859505,0,0,0.859505,50.9981,50.9964)">
            <path d="M252.224,594.836C252.388,595.28 252.515,595.734 252.607,596.197C253.201,595.084 252.855,594.876 252.224,594.836Z" style="fill:#417172;fill-opacity:0.85;fill-rule:nonzero;"/>
        </g>
        <g transform="matrix(0.859505,0,0,0.859505,50.9981,50.9964)">
            <path d="M368.748,709.907C366.625,710.512 364.437,710.843 362.232,710.89C363.416,711.481 365.403,711.339 368.748,709.907Z" style="fill:#417172;fill-opacity:0.85;fill-rule:nonzero;"/>
        </g>
        <g transform="matrix(0.859505,0,0,0.859505,50.9981,50.9964)">
            <path d="M706.277,463.321C707.116,464.181 705.816,467.1 706.277,463.321Z" style="fill:#417172;fill-opacity:0.85;fill-rule:nonzero;"/>
        </g>
        <g transform="matrix(0.859505,0,0,0.859505,50.9981,50.9964)">
            <path d="M662.475,466.328C663.95,466.921 665.264,467.85 666.318,469.039C665.337,467.77 663.999,466.827 662.475,466.328Z" style="fill:#417172;fill-opacity:0.85;fill-rule:nonzero;"/>
        </g>
        <g transform="matrix(0.859505,0,0,0.859505,50.9981,50.9964)">
            <path d="M654.368,302.524C654.349,302.434 654.37,302.354 654.351,302.25C652.763,303.531 653.073,303.302 654.368,302.524Z" style="fill:#417172;fill-opacity:0.85;fill-rule:nonzero;"/>
        </g>
        <g transform="matrix(0.859505,0,0,0.859505,50.9981,50.9964)">
            <path d="M700.59,467.52C702.131,466.485 703.492,465.209 704.622,463.736C703.102,464.797 701.746,466.071 700.59,467.52Z" style="fill:#417172;fill-opacity:0.85;fill-rule:nonzero;"/>
        </g>
        <g transform="matrix(0.859505,0,0,0.859505,50.9981,50.9964)">
            <path d="M705.007,468.052C704.224,469.17 703.702,470.073 703.175,470.924C704.494,471.831 705.55,471.708 705.007,468.052Z" style="fill:#417172;fill-opacity:0.85;fill-rule:nonzero;"/>
        </g>
        <g transform="matrix(0.859505,0,0,0.859505,50.9981,50.9964)">
            <path d="M707.124,458.13C706.703,460.151 705.862,462.063 704.659,463.738C705.456,463.202 706.023,463.043 706.278,463.32C706.422,462.219 706.637,460.664 707.124,458.13Z" style="fill:#417172;fill-opacity:0.85;fill-rule:nonzero;"/>
        </g>
        <g transform="matrix(0.859505,0,0,0.859505,50.9981,50.9964)">
            <path d="M91.119,446.436C90.923,446.731 90.708,447.012 90.476,447.282C94.959,448.898 94.016,447.87 91.119,446.436Z" style="fill:#417172;fill-opacity:0.85;fill-rule:nonzero;"/>
        </g>
        <g transform="matrix(0.859505,0,0,0.859505,50.9981,50.9964)">
            <path d="M500.19,144.003C500.346,143.996 500.535,143.828 500.685,143.816L500.538,143.305L500.19,144.003Z" style="fill:#417172;fill-opacity:0.85;fill-rule:nonzero;"/>
        </g>
        <g transform="matrix(0.859505,0,0,0.859505,50.9981,50.9964)">
            <path d="M510.336,122.882L512.094,119.096C512.094,119.096 505.978,125.385 500.056,131.793C494.114,138.191 488.374,144.706 488.374,144.706C493.067,140.847 495.816,139.571 497.527,139.694C499.259,139.793 499.895,141.398 500.535,143.303C500.535,143.303 503.501,137.293 506.391,131.233L510.336,122.882Z" style="fill:#417172;fill-opacity:0.85;fill-rule:nonzero;"/>
        </g>
        <g transform="matrix(0.859505,0,0,0.859505,50.9981,50.9964)">
            <path d="M715.473,402.615C713.741,400.363 712.55,399.394 716.026,402.017L715.393,399.245C715,397.584 714.53,395.384 713.956,393.193C712.732,388.837 711.51,384.482 711.51,384.482L713.89,384.459C713.819,375.594 712.231,366.807 709.198,358.479C707.927,354.119 707.537,349.548 708.045,345.034C708.863,339.726 711.004,334.709 714.27,330.446C712.635,327.688 711.262,324.786 710.167,321.77C708.82,317.984 708.44,313.919 709.061,309.949L716.948,306.834L716.95,306.832C715.6,302.134 715.395,297.18 716.35,292.385C716.688,287.162 716.439,282.518 711.8,281.954L711.798,281.954C716.009,279.55 718.841,275.306 719.446,270.496C719.68,268.256 719.564,265.992 719.103,263.787C718.545,261.426 717.77,259.122 716.787,256.905C715.811,254.606 714.684,252.316 713.54,250.07C712.387,247.828 711.276,245.618 710.099,243.533L710.099,243.536C707.901,240.007 706.448,236.065 705.833,231.953L695.582,235.295L695.584,235.292C695.274,234.222 694.91,233.168 694.494,232.132C694.036,231.119 693.53,230.121 692.977,229.141L692.975,229.143C691.829,227.132 690.536,225.206 689.113,223.379C687.653,221.484 686.024,219.598 684.254,217.676C682.437,215.776 680.383,213.876 678.247,211.874L669.923,216.528C664.389,214.094 663.59,208.105 662.621,201.19C662.193,197.713 661.848,193.956 661.106,190.274C660.357,186.649 658.918,183.203 656.864,180.124C660.487,179.074 661.638,182.808 661.092,186.181L661.094,186.181C663.33,181.246 662.886,175.508 659.917,170.976C656.746,167.197 652.79,164.155 648.326,162.057C643.944,159.967 639.764,157.481 635.835,154.631C632.246,151.722 630.423,147.157 631.021,142.576C629.173,142.522 627.439,141.666 626.274,140.229C625.106,138.793 624.626,136.918 624.955,135.096C625.229,135.359 625.591,135.512 625.969,135.527C625.711,135.042 625.392,134.593 625.021,134.187C625.078,132.984 625.189,131.703 625.234,130.441C625.283,129.186 625.264,127.929 625.177,126.676C624.591,128.914 624.34,131.225 624.433,133.537C623.095,132.187 621.585,131.02 619.94,130.067C617.889,128.815 615.714,127.777 613.45,126.969L619.625,118.57L619.625,118.572C619.325,118.357 619.013,118.156 618.694,117.974C618.333,112.002 612.753,118.66 608.749,125.688C605.93,125.14 603.032,125.161 600.222,125.75C604.878,118.73 601.763,117.589 598.7,116.315C597.134,115.904 595.805,114.869 595.023,113.451C594.387,111.941 594.643,109.601 596.727,105.541C592.669,107.652 587.392,105.047 581.47,103.487C575.958,101.762 569.962,102.589 565.122,105.742C564.543,104.627 563.96,103.513 563.312,102.481C562.986,101.954 562.629,101.446 562.244,100.959C561.861,100.505 561.441,100.084 560.987,99.702C558.961,97.988 556.204,97.423 553.665,98.201L556.714,92.366L559.732,86.505C559.732,86.505 554.977,88.417 550.34,90.419C545.635,92.494 541.038,94.677 541.038,94.677C540.367,84.669 540.419,79.158 551.456,74.519L551.456,74.521C547.639,75.266 543.775,75.755 539.892,75.982C537.931,76.1 535.965,76.055 534.013,75.849C532.205,75.656 530.383,75.696 528.584,75.963C525.15,76.551 521.785,77.494 518.545,78.78L523.262,71.782L523.264,71.782C520.064,71.277 516.794,71.461 513.672,72.319C510.295,72.751 507.608,72.529 507.974,68.776L507.974,68.774C507.031,63.707 503.99,59.274 499.601,56.57C498.37,55.629 497.089,54.755 495.763,53.949C494.371,53.145 492.899,52.358 491.36,51.579C488.283,50.016 484.948,48.483 481.486,46.918C477.963,45.5 474.309,44.054 470.649,42.496L467.9,41.308C466.985,40.899 466.071,40.488 465.14,40.121C463.287,39.36 461.446,38.564 459.628,37.716C457.811,36.87 456.015,35.976 454.259,35.021C453.38,34.544 452.508,34.052 451.65,33.547L449.074,32.072L449.072,32.072C445.662,30.082 442.464,27.74 439.536,25.089C439.358,31.439 438.626,33.733 437.61,33.903C436.582,34.092 435.253,32.069 433.694,29.971C430.6,25.771 426.621,20.683 424.193,29.978C423.829,23.926 420.573,19.865 426.039,15.817C424.309,16.129 422.546,16.203 420.8,16.037C419.287,15.924 417.789,15.657 416.333,15.236C413.563,14.437 411.15,13.208 408.81,12.324L408.808,12.324C407.688,11.878 406.52,11.554 405.329,11.358C404.148,11.157 402.935,11.228 401.787,11.566C398.554,12.752 395.791,14.957 393.917,17.845C392.896,11.819 397.92,9.654 396.85,6.029C395.519,7.161 391.705,10.602 390.535,6.95C389.372,3.323 393.137,2.292 395.767,0.012L395.769,0.014C392.437,-0.239 389.124,0.716 386.437,2.701C383.901,4.859 381.947,7.617 380.748,10.722C378.068,18.374 376.414,26.348 375.833,34.435C372.583,30.236 369.965,28.359 367.545,28.9C365.12,29.543 362.87,32.585 360.322,38.124C358.023,32.563 353.793,26.738 362.598,24.814C361.367,24.602 358.874,23.971 355.789,23.363C354.249,23.061 352.561,22.763 350.817,22.524L350.817,22.529C349.054,22.356 347.286,22.274 345.516,22.283C338.462,22.354 332.067,24.181 332.355,31.068C330.58,27.766 325.481,30.694 324.381,32.377C321.654,32.427 319.539,32.396 317.731,32.358C315.93,32.344 314.451,32.408 312.976,32.481L312.976,32.483C309.235,32.746 305.536,33.424 301.949,34.506L305.224,36.26C304.426,44.683 302.485,45.784 299.697,45.477C296.915,45.117 293.212,43.106 289.27,44.888L289.166,43.21L289.164,43.215C285.85,41.709 282.232,41.005 278.597,41.164C277.142,41.331 275.804,42.04 274.849,43.151C273.906,44.236 272.531,44.848 271.094,44.822C269.716,44.81 268.343,44.631 267.006,44.29C264.715,43.803 262.456,43.189 260.235,42.452L264.134,51.921C266.358,62.697 261.632,60.757 254.991,57.64C251.659,55.96 248.135,54.684 244.5,53.838C241.376,52.836 237.963,53.965 236.054,56.636L236.971,57.255L238.991,58.652L241.901,60.696C241.156,62.981 239.131,62.643 236.423,61.126L236.423,61.124C232.915,58.845 229.602,56.279 226.523,53.45C219.171,47.088 210.803,39.634 207.241,39.901C205.138,38.807 208.023,36.108 209.344,34.023C204.008,32.882 201.524,33.26 200.686,34.406C199.847,35.574 200.65,37.592 201.794,40.005C204.093,44.826 207.683,51.244 202.735,55.343L202.732,55.343C200.317,52.112 198.379,48.55 196.975,44.769C196.29,43.179 195.215,41.787 193.853,40.716C192.355,39.74 190.46,39.598 188.831,40.34C185.535,38.818 182.465,47.069 178.546,54.78C176.93,58.608 174.621,62.103 171.735,65.093C170.431,66.329 168.835,67.223 167.098,67.686C165.196,68.192 163.19,68.151 161.311,67.568C166.55,70.732 171.541,74.041 169.074,80.726C166.947,82.402 164.296,83.267 161.59,83.168C159.987,83.298 158.243,83.321 156.506,83.409C154.786,83.518 153.035,83.643 151.354,83.867C148.277,84.045 145.33,85.172 142.92,87.091C141.868,88.095 141.167,89.407 140.918,90.839C140.637,92.803 140.779,94.802 141.334,96.705C139.791,96.353 138.397,95.525 137.347,94.341C136.56,96.605 135.594,98.803 134.46,100.913C133.129,103.378 131.926,105.909 130.853,108.497C128.367,113.297 127.755,118.85 129.137,124.076C127.59,122.89 125.93,121.859 124.184,120.997C122.887,120.358 121.499,119.926 120.072,119.711C117.857,119.368 115.601,119.964 113.845,121.353C112.067,122.859 110.642,124.735 109.673,126.853C109.392,127.413 109.12,127.989 108.865,128.583C108.617,129.183 108.397,129.812 108.178,130.44C107.743,131.702 107.343,132.993 106.96,134.276C106.195,136.84 105.5,139.364 104.699,141.536L104.696,141.533C104.077,143.436 103.111,145.206 101.846,146.756C99.559,149.202 96.016,149.077 89.772,143.894L87.901,146.603L85.989,149.375C85.292,150.391 84.533,151.459 83.852,152.589L78.294,161.5L75.945,159.106C74.82,160.196 73.792,161.38 72.875,162.649C72.119,163.746 71.492,164.927 71.013,166.17C70.174,168.304 69.819,170.597 69.975,172.885C70.547,177.264 72.017,181.48 74.291,185.268C70.864,186.656 69.425,183.17 68.134,182.04C60.352,188.575 56.315,192.573 55.393,197.734L55.391,197.734C54.918,200.681 55.053,203.695 55.783,206.587C56.197,208.551 56.712,210.494 57.329,212.403C58.026,214.571 58.863,216.96 59.827,219.614L49.625,216.508C50.525,218.163 49.301,220.094 46.98,222.459L42.946,226.42C41.443,227.876 39.805,229.464 38.163,231.194C36.452,232.969 34.85,234.843 33.361,236.809C31.912,238.872 30.667,241.07 29.641,243.372C28.601,245.702 27.901,248.17 27.559,250.696C27.384,252 27.358,253.319 27.486,254.628C27.601,256.008 27.84,257.377 28.199,258.712C26.564,258.005 25.21,256.779 24.34,255.224C24.947,258.152 24.846,261.186 24.045,264.069C23.655,265.502 23.144,266.898 22.513,268.243C21.92,269.654 21.247,271.029 20.497,272.362C18.898,275.129 17.153,277.812 15.268,280.392C14.346,281.718 13.337,283.018 12.486,284.344C11.618,285.665 10.77,286.979 9.978,288.281C8.445,290.701 7.164,293.274 6.159,295.959C5.732,297.155 5.432,298.391 5.261,299.65C5.15,300.844 5.214,302.047 5.45,303.224C6.415,307.879 10.413,312.022 19.595,315.314L20.717,317.689C21.36,319.105 22.357,320.998 23.341,322.865C25.309,326.608 27.294,330.245 27.294,330.245C29.724,321.588 33.777,322.848 38.121,325.285C42.465,327.749 47.118,331.304 50.637,328.288C51.41,331.625 48.087,335.463 44.422,337.6L44.422,337.602C42.886,338.63 41.068,339.155 39.22,339.108C37.533,338.942 36.24,337.536 36.214,335.842L38.263,334.724L38.263,334.726C34.964,333.412 31.225,333.861 28.333,335.917C26.44,337.973 25.23,340.563 24.868,343.333C24.431,346.115 23.672,348.837 22.609,351.444C22.098,352.512 21.311,353.427 20.331,354.088C19.123,354.778 17.726,355.069 16.344,354.918C16.426,359.396 16.332,363.854 16.103,368.304C16.025,369.417 16.01,370.527 15.992,371.638L15.897,374.97C15.819,377.194 15.715,379.416 15.583,381.639L15.37,384.979C15.29,386.092 15.205,387.205 15.188,388.313C15.101,390.539 15.013,392.761 14.926,394.98L14.592,401.666C14.541,402.779 14.451,403.899 14.429,405.01L14.387,408.342C14.34,412.809 14.292,417.259 14.245,421.692C14.342,426.123 14.604,430.536 14.881,434.943C15.044,437.143 15.15,439.353 15.424,441.527C15.71,443.701 16.022,445.869 16.363,448.026C16.705,450.186 17.079,452.334 17.483,454.471L18.121,457.666C18.343,458.727 18.653,459.767 18.929,460.811L25.835,456.813L30.625,454.104L32.821,452.885L32.906,453.374C32.96,453.686 33.028,454.135 33.154,454.662L34.012,458.545L35.269,464.203C32.709,468.168 24.894,471.876 23.013,463.486C19.444,466.892 22.28,469.86 26.376,471.717C27.423,472.19 28.5,472.587 29.604,472.911C30.691,473.223 31.792,473.471 32.905,473.66C34.442,473.998 36.025,474.069 37.585,473.868C37.356,482.52 32.603,482.681 27.98,481.024C23.367,479.396 18.913,475.988 19.622,478.514L23.11,484.822L24.282,482.707C28.241,484.33 31.831,484.635 34.77,485.76L34.768,485.763C36.252,486.29 37.587,487.164 38.665,488.31C40.043,489.811 41.054,491.607 41.621,493.561C41.196,500.633 34.054,500.313 34.496,502.899C33.454,503.327 33.329,504.343 35.607,506.727C35.607,506.727 35.874,507.649 36.392,508.982L38.23,513.902L40.932,521.073L45.124,515.637L49.366,510.296C53.504,511.936 54.837,515.084 56.34,516.323L56.34,516.327C57.141,517.015 58.335,516.987 59.103,516.261C61.062,514.654 62.799,512.792 64.264,510.722C62.463,512.861 61.27,515.444 60.811,518.199C60.367,521.009 60.433,523.875 61.005,526.662C62.454,532.931 65.018,538.892 68.572,544.256C70.25,547.021 72.068,549.699 74.015,552.28C75.837,554.797 77.569,557.16 79.042,559.315L81.117,562.329L81.114,562.331C81.691,563.184 82.223,564.068 82.705,564.978C83.492,566.221 83.863,567.679 83.771,569.147C86.588,569.548 89.336,570.338 91.938,571.493C94.219,572.453 96.353,573.734 98.272,575.296C102.008,578.715 105.338,582.551 108.198,586.729C108.252,582.981 117.582,572.765 122.391,580.53L122.391,580.528C118.185,583.026 114.855,586.762 112.855,591.227C112.04,594.131 112.432,597.241 113.945,599.85C115.55,602.745 116.868,605.787 117.882,608.938C118.367,610.786 118.553,612.702 118.435,614.609C118.331,616.458 117.977,618.28 117.381,620.033C119.723,614.716 125.05,618.438 130.393,621.316C132.847,622.985 135.786,623.784 138.748,623.585C141.229,623.082 143.172,620.825 144.231,615.453C146.49,618.809 144.902,620.953 142.768,623.356C139.918,625.745 138.259,629.264 138.228,632.984C139.563,633.213 140.882,633.541 142.17,633.967C143.427,634.383 144.618,634.896 145.819,635.413C148.187,636.498 150.42,637.859 152.469,639.469C154.582,641.149 156.586,642.961 158.469,644.897C160.462,646.802 162.414,648.865 164.378,651.001C166.353,653.119 168.296,655.388 170.39,657.503C172.5,659.597 174.674,661.676 176.959,663.645C178.101,664.63 179.268,665.59 180.467,666.509C181.067,666.968 181.674,667.417 182.289,667.856C182.917,668.272 183.558,668.669 184.208,669.057L184.208,669.059C186.812,670.633 189.565,671.949 192.427,672.989C193.37,670.881 194.138,668.702 194.722,666.469C195.688,663.629 197.917,661.398 200.758,660.426L201.105,663.931L201.493,667.535L202.022,671.6C202.762,677.147 203.674,682.769 203.674,682.769C206.262,683.003 209.559,678.605 212.463,676.069C213.916,674.8 215.268,674.008 216.417,674.481C217.584,674.918 218.534,676.624 219.234,680.443C219.352,677.078 219.638,672.059 222.965,672.172L222.965,672.174C225.125,674.311 227.418,676.31 229.828,678.163C230.424,678.624 231.027,679.073 231.634,679.512C232.246,679.942 232.877,680.33 233.503,680.727C234.761,681.514 236.039,682.265 237.337,682.984C239.929,684.421 242.588,685.725 245.296,686.924C246.641,687.55 248.044,688.013 249.436,688.514C250.833,689.001 252.239,689.466 253.653,689.908C256.481,690.795 259.339,691.596 262.217,692.34C265.126,692.966 268.057,693.524 270.989,694.058C273.927,694.569 276.848,695.143 279.804,695.54L288.678,696.677L293.095,697.291L295.3,697.613L297.515,697.863C300.466,698.208 303.406,698.61 306.332,699.097C307.795,699.34 309.255,699.605 310.714,699.893C312.169,700.193 313.639,700.385 315.1,700.68C318.021,701.233 320.935,701.9 323.846,702.71C325.302,703.112 326.755,703.566 328.214,704.029C329.674,704.443 331.135,704.899 332.598,705.395L332.595,705.393C335.592,706.411 338.534,707.59 341.405,708.923C344.355,710.346 347.33,711.747 350.341,713.411C353.484,715.16 356.537,717.067 359.489,719.128C356.131,715.486 355.618,713.491 356.504,712.381C357.398,711.27 359.726,711.046 362.207,710.913C358.965,709.179 362.138,701.697 361.413,696.623C361.413,696.623 361.718,696.859 362.252,697.213L364.48,698.717C366.331,699.96 368.827,701.616 371.365,703.266C373.901,704.918 376.484,706.563 378.44,707.794C379.419,708.425 380.236,708.888 380.808,709.224L381.711,709.748C383.018,702.574 388.201,701.857 393.244,701.215L393.246,701.217C394.48,701.092 395.704,700.893 396.914,700.622C398.024,700.359 399.088,699.929 400.069,699.35C402.215,697.939 403.399,695.455 403.148,692.901L397.417,696.179L397.419,696.179C399.213,687.243 397.216,677.963 391.908,670.554C386.626,661.8 383.268,652.021 382.058,641.869C380.576,646.536 378.341,647.335 375.793,646.319C372.7,644.461 369.895,642.162 367.467,639.491C366.106,638.161 364.641,636.941 363.086,635.847C362.396,635.374 361.658,634.973 360.886,634.651C360.186,634.327 359.442,634.115 358.678,634.022C355.722,633.711 352.751,635.731 349.485,642.162C346.872,637.988 351.95,635.618 350.591,630.896C347.392,639.694 343.348,641.16 336.655,636.894L337.589,634.781C336.369,634.845 335.195,634.873 334.06,634.861C332.928,634.824 331.839,634.694 330.785,634.564L330.783,634.564C328.774,634.304 326.784,633.911 324.825,633.391C323.886,633.141 322.974,632.864 322.079,632.567L320.748,632.104C320.311,631.933 319.881,631.73 319.451,631.539C317.735,630.756 316.071,629.894 314.41,628.972C312.748,628.05 311.092,627.072 309.392,626.054C308.539,625.564 307.689,624.985 306.821,624.404L304.163,622.643C302.348,621.455 300.443,620.245 298.401,619.027L296.843,618.115L295.251,617.104C294.168,616.428 293.046,615.752 291.878,615.076L290.916,625.224C286.752,622.749 286.648,619.464 285.282,616.503C280.648,623.189 283.708,624.196 286.847,625.439C289.95,626.673 293.142,628.143 288.714,635.674L288.707,635.67C288.737,631.43 286.736,627.434 283.326,624.917C281.773,623.825 280.119,622.885 278.386,622.109C276.607,621.313 274.723,620.632 272.863,619.94C271.932,619.593 271.008,619.245 270.105,618.877C269.212,618.482 268.354,618.026 267.529,617.56C265.918,616.681 264.462,615.544 263.216,614.195C260.444,610.775 259.61,606.174 261.007,601.998C257.908,600.604 257.237,603.487 256.597,606.377C255.956,609.267 255.342,612.167 252.09,610.714L252.851,604.2L247.964,610.943L247.964,610.941C247,610.133 246.309,609.043 245.988,607.826C245.617,606.422 245.471,604.966 245.553,603.515C245.716,600.502 246.411,597.543 247.602,594.771C248.306,595.816 250.989,594.757 252.204,594.838C251.168,590.208 247.373,589.073 243.608,588.67C241.711,588.509 239.924,588.35 238.515,588.145C237.731,588.093 236.972,587.828 236.322,587.384L237.927,590.085L239.283,592.344C239.65,592.973 239.919,593.351 239.919,593.351L239.919,593.349C237.506,592.895 235.138,592.229 232.841,591.361C231.674,590.934 230.511,590.468 229.353,589.974L227.616,589.211C227.049,588.932 226.496,588.625 225.933,588.322C223.7,587.107 221.474,585.81 219.245,584.498C218.142,583.825 216.988,583.227 215.918,582.487L212.654,580.363C210.466,578.966 208.244,577.628 205.966,576.395L205.966,576.399C203.77,575.043 201.492,573.83 199.146,572.765C194.294,570.52 189.109,569.076 183.796,568.487L181.861,573.027L181.858,573.029C180.102,572.802 178.377,572.382 176.711,571.777C175.596,571.325 174.565,570.685 173.665,569.886C172.355,568.591 171.448,566.946 171.053,565.148C170.798,564.28 170.562,563.378 170.236,562.456C169.881,561.468 169.446,560.513 168.933,559.599C167.334,557.006 165.065,554.891 162.366,553.476L163.581,553.095C161.255,553.766 158.783,553.731 156.482,552.989C154.18,552.247 152.15,550.833 150.656,548.931C154.1,548.577 154.794,545.332 155.714,542.226C156.621,539.109 157.76,536.136 161.783,535.962L158.812,535.142C157.933,534.872 157.132,534.638 156.394,534.435L156.392,534.437C155.163,534.085 153.913,533.804 152.651,533.594C150.973,533.284 149.248,533.367 147.608,533.83C146.086,534.251 144.469,534.957 141.947,535.737L141.947,535.739C138.339,536.836 134.626,537.557 130.871,537.888L133.253,534.485L135.656,531.107L135.656,531.105C132.586,531.868 129.457,532.369 126.305,532.603C123.114,532.49 120.103,531.096 117.955,528.735C122.672,529.69 124.348,526.811 126.363,523.949L126.366,523.949C127.304,522.153 128.767,520.685 130.561,519.74C132.354,518.795 134.394,518.419 136.405,518.66C137.778,514.671 137.043,510.258 134.451,506.929C132.246,504.709 129.585,502.991 126.654,501.895C125.375,501.342 124.146,500.68 122.981,499.919C122.497,499.588 122.06,499.196 121.677,498.752C121.339,498.329 121.1,497.837 120.98,497.312C120.483,495.195 121.795,492.236 126.465,487.635C122.62,487.845 118.968,489.388 116.135,491.997C114.819,493.727 114.486,496.017 115.258,498.05C115.559,499.031 115.939,499.983 116.395,500.902C116.811,501.779 117.31,502.512 117.617,503.126C118.253,504.341 118.328,504.986 116.75,504.641L116.75,504.639C115.558,506.196 113.904,507.335 112.025,507.893C110.147,508.448 108.138,508.394 106.292,507.734C104.501,507.408 102.835,506.602 101.466,505.402C100.1,504.199 99.089,502.649 98.538,500.914C97.966,499.593 98.933,497.586 100.618,495.166C102.296,492.749 104.813,489.859 107.155,486.838C109.516,483.99 111.499,480.85 113.054,477.494C113.694,476.026 114.067,474.457 114.16,472.859C114.299,471.3 114.032,469.728 113.387,468.303C113.791,469.544 115.346,468.965 115.741,470.198C117.359,466.845 114.731,465.432 112.408,463.643C111.224,462.879 110.303,461.776 109.764,460.476C109.476,458.595 110.071,456.687 111.38,455.31C104.631,456.033 104.123,454.074 103.307,452.599C102.49,451.112 101.348,450.073 93.202,452.249L101.104,462.683L101.102,462.685C96.083,460.237 90.895,458.155 85.578,456.453C83.002,455.442 80.809,453.648 79.308,451.323C77.9,448.638 77.845,445.445 79.166,442.715C83.349,443.169 87.402,444.431 91.101,446.433C92.973,444.06 91.713,442.741 90.454,441.366C89.189,440.002 87.913,438.582 89.981,436.183L89.983,436.183C92.739,435.287 95.74,435.538 98.309,436.88C99.973,438.156 101.197,439.917 101.809,441.921C102.563,444.159 103.606,446.288 104.91,448.257C106.787,450.517 109.455,451.975 112.369,452.336C112.938,451.89 113.281,451.211 113.302,450.488C113.323,449.763 113.021,449.068 112.477,448.586C111.307,447.482 110.06,446.459 108.748,445.528C106.444,443.621 105.721,442.158 114.923,441.118C103.149,442.191 102.873,438.762 103.168,434.919L103.166,434.919C103.636,432.962 103.544,430.913 102.906,429.006C102.022,427.139 99.871,425.508 95.003,424.324L104.962,422.625C104.048,422.136 102.173,421.481 100.649,420.572C99.094,419.671 97.728,418.553 97.605,417.261C97.605,417.261 101.032,417.754 104.442,418.187C107.855,418.626 111.253,419.005 111.253,419.005C105.166,416.84 106.891,412.959 109.282,409.235C109.878,408.299 110.514,407.363 111.076,406.451L111.081,406.449C111.643,405.596 112.135,404.698 112.551,403.764C113.43,402.148 112.957,400.127 111.452,399.066C112.144,401.273 111.785,403.677 110.478,405.586C109.183,406.775 107.493,407.443 105.735,407.465C101.758,407.947 96.618,407.495 93.595,411.149C91.92,409.819 90.66,408.037 89.965,406.011C89.549,404.657 89.743,403.19 90.502,401.991C92.756,399.321 95.635,397.253 98.884,395.967C102.542,394.346 105.967,392.243 109.067,389.714C111.814,387.37 112.811,383.562 111.568,380.171C111.398,382.107 110.37,383.863 108.767,384.959C106.787,387.034 103.629,387.45 101.179,385.959C101.649,384.912 102.185,383.896 102.783,382.915C103.445,381.8 104.213,380.751 105.078,379.784C106.917,377.655 109.176,375.929 111.714,374.717C110.393,368.674 107.806,369.152 104.767,370.619C101.725,372.068 98.211,374.578 94.99,371.921C101.03,369.525 99.679,368.057 96.462,366.334L96.464,366.334C92.532,364.902 88.954,362.636 85.979,359.692L96.226,359.803L96.226,359.805C96.94,358.451 97.285,356.936 97.231,355.407C97.2,354.381 96.739,353.417 95.961,352.748C93.972,351.418 91.693,350.579 89.314,350.3C84.197,349.248 79.26,348.253 83.616,341.54C83.616,341.54 87.073,343.307 90.536,344.99C93.998,346.682 97.462,348.287 97.462,348.287L95.825,344.706L94.693,342.215L94.241,341.081L99.97,342.286L105.72,343.461C101.78,339.483 100.48,336.846 100.615,334.431L100.615,334.433C100.743,333.143 101.144,331.897 101.794,330.777C102.465,329.498 103.51,328.121 104.59,326.457C100.511,326.707 96.437,325.866 92.79,324.02C91.129,323.401 89.697,322.29 88.68,320.837C87.667,319.384 87.118,317.656 87.109,315.881C88.413,315.149 89.905,314.818 91.398,314.931C92.358,315.054 93.308,315.248 94.239,315.513C95.699,315.803 96.366,315.34 96.621,310.583C99.358,311.925 101.903,313.629 104.188,315.647C104.857,316.446 105.015,317.205 104.396,317.904L104.396,317.902C103.132,318.963 101.591,319.641 99.956,319.852C103.184,320.835 105.966,322.94 109.172,323.869L109.175,323.869C112.11,322.73 114,319.856 113.887,316.711C113.965,313.991 113.133,311.223 113.405,309.638C112.835,310.978 111.741,312.029 110.378,312.545L108.619,310.087C107.579,308.607 106.138,306.594 104.798,304.564C102.194,300.532 99.622,296.297 99.622,296.297C103.883,295.208 106.433,297.682 108.969,300.014C108.473,298.363 107.664,296.817 106.587,295.468C105.36,293.898 104.713,291.956 104.75,289.966C112.441,293.293 120.646,295.515 123.153,301.636L122.225,299.457C121.662,298.14 120.908,296.368 120.294,294.61C118.992,291.079 117.711,287.42 117.711,287.42C120.183,287.323 122.64,286.995 125.051,286.44C127.686,286.012 130.3,285.941 131.456,287.142C134.918,284.925 132.415,279.889 130.383,274.389L130.38,274.389C129.376,271.828 128.773,269.126 128.594,266.38C128.35,263.904 129.627,261.526 131.822,260.356C130.38,259.135 129.487,257.388 129.343,255.505C130.794,253.791 132.458,252.264 134.292,250.967C136.199,249.729 138.016,248.358 139.732,246.867C141.367,245.413 142.537,243.509 143.085,241.391C143.735,238.527 143.532,235.535 142.506,232.784C142.506,232.784 146.429,233.505 150.301,234.301C154.148,235.074 158.064,236 158.064,236C158.738,231.99 153.81,230.877 148.913,229.222C144.031,227.537 139.193,225.323 140.689,218.066C141.436,212.677 144.544,213.724 148.129,216.147C151.697,218.552 155.741,222.18 158.388,222.114L158.385,222.114C156.043,217.411 154.443,212.372 153.649,207.178C153.604,206.57 153.602,205.961 153.637,205.353C153.689,204.798 153.791,204.247 153.942,203.711C154.216,202.687 154.736,201.747 155.46,200.974C157.525,199.159 160.309,198.389 163.012,198.883C163.343,202.924 160.228,203.236 159.378,206.003L164.671,206.096L169.89,206.266C171.482,210.647 172.525,215.208 172.993,219.847C173.222,221.034 173.973,222.057 175.041,222.627C177.05,223.586 179.175,224.279 181.363,224.685C175.845,220.041 173.893,216.458 173.756,213.351C173.857,210.324 175.015,207.426 177.029,205.162C179.04,202.875 180.295,200.02 180.616,196.99C180.257,192.244 177.965,187.853 174.276,184.848L177.972,185.438L181.628,186.062C180.57,186.738 181.621,188.078 180.577,188.738C184.483,189.709 185.74,189.038 185.667,187.341L185.67,187.341C185.53,186.225 185.202,185.143 184.698,184.139C184.159,182.895 183.434,181.489 182.678,180.008C179.629,174.097 176.174,166.917 181.765,164.568L181.765,164.566C182.853,164.301 183.975,164.216 185.091,164.31C186.126,164.379 187.142,164.625 188.094,165.036C189.909,165.754 191.131,167.48 191.202,169.432L192.225,163.963L193.329,158.407C194.532,157.967 195.867,158.534 196.385,159.704C196.793,160.319 196.938,161.07 196.779,161.791L197.354,161.141L200.494,157.816C202.789,155.372 205.086,152.929 205.086,152.929L205.502,153.676C204.885,150.802 204.5,147.886 204.354,144.95C204.153,141.847 204.131,138.855 204.214,137.002C209.428,138.484 204.458,140.528 207.213,142.991L208.414,137.967L209.286,134.476C209.536,133.533 209.723,132.926 209.723,132.926L209.721,132.926C212.668,134.968 214.355,138.38 214.19,141.963C214.362,144.868 212.833,147.609 210.271,148.987C215.735,153.987 218.434,155.958 219.84,156.135C221.241,156.317 221.322,154.694 221.445,152.638L221.442,152.638C221.352,150.478 221.988,148.351 223.248,146.595C224.132,145.711 225.318,145.193 226.571,145.144C227.452,145.082 228.341,145.13 229.213,145.286C230.39,145.484 231.545,145.805 232.656,146.245L232.025,147.238L230.711,149.513L228.83,152.794L228.832,152.794C230.978,155.034 233.422,156.969 236.095,158.543C237.685,159.394 239.424,159.928 241.218,160.115C245.276,160.065 249.279,161.027 252.872,162.913C250.965,160.928 244.959,156.885 239.519,152.248C234.112,147.592 229.336,142.338 231.085,137.321L231.085,137.319C232.494,137.867 234.077,137.723 235.363,136.931C237.095,135.239 238.121,132.954 238.236,130.534C242.923,139.666 245.435,135.693 249.823,132.926L255.207,145.42L255.209,145.422C255.925,144.037 256.372,142.527 256.523,140.977C256.672,139.467 256.656,137.947 256.481,136.439C255.949,133.197 255.743,129.91 255.866,126.627C257.575,126.535 259.279,126.913 260.791,127.719C262.301,128.525 263.566,129.728 264.445,131.198C267.137,134.794 269.533,138.602 271.613,142.584C276.318,142.052 273.404,138.611 270.377,134.589C267.361,130.557 264.188,125.965 269.321,122.755L269.323,122.753C273.262,123.75 277.436,122.656 280.38,119.858C283.94,115.956 287.229,111.816 290.23,107.469C292.721,108.159 294.248,110.672 293.714,113.203C293.482,115.301 292.806,117.402 294.286,119.038L295.482,113.148L296.782,107.228C298.103,107.169 298.426,110.513 298.601,112.203L298.599,112.203C299.369,110.901 299.755,109.405 299.71,107.892C299.728,106.333 299.492,104.664 299.343,102.998L299.346,102.998C298.949,101.341 299.019,99.607 299.547,97.988C300.074,96.369 301.038,94.925 302.333,93.819C302.085,90.054 303.186,89.322 305.025,90.062L305.025,90.064C306.175,90.603 307.258,91.281 308.246,92.082C308.848,92.538 309.477,93.037 310.122,93.555L312.117,95.23L312.114,95.228C314.4,97.452 317.162,99.12 320.194,100.105C322.744,100.592 324.996,99.278 326.755,94.916C329.343,98.558 326.627,103.289 327.887,108.457C333.093,102.384 335.561,100.103 337.671,97.381C338.737,95.984 339.746,94.637 341.074,92.562L346.517,83.945L351.038,88.209C352.151,89.244 353.247,90.43 354.063,91.255L355.417,92.661L355.417,92.664C352.496,87.72 352.224,81.646 354.694,76.461C357.343,70.664 360.855,65.302 365.111,60.554C363.369,56.643 361.37,52.854 359.123,49.21C359.123,49.21 362.441,47.414 365.759,45.615C367.439,44.68 369.127,43.94 370.405,43.307L372.539,42.286C374.045,44.606 372.421,49.194 370.074,54.743C370.996,53.672 371.885,52.613 372.591,51.618C376.956,56.903 373.969,64.586 370.533,71.99C369.186,69.227 367.815,66.283 366.442,63.352L366.444,63.352C362.755,71.288 360.813,79.921 360.749,88.673C361.59,87.061 362.944,85.775 364.599,85.019C363.79,86.77 363.441,88.696 363.578,90.618C363.927,92.069 365.173,88.987 367.191,85.669C367.191,85.669 367.685,89.49 368.179,93.314L369.096,100.957L369.994,94.985C369.994,94.985 373.532,97.566 376.925,100.123C378.632,101.352 380.286,102.82 381.524,103.824L383.571,105.537C386.473,102.026 389.456,98.038 392.625,94.026L392.625,94.021C395.801,90.023 399.183,86.192 402.756,82.548C404.559,80.735 406.452,79.017 408.43,77.398C410.356,75.862 412.401,74.479 414.546,73.265C416.659,72.062 418.878,71.055 421.175,70.258C423.472,69.429 425.876,68.926 428.313,68.76C425.306,72.856 423.373,77.637 422.693,82.668C421.873,87.406 421.454,92.513 419.805,98.882C419.516,95.172 418.427,93.584 416.895,93.111C414.92,92.863 412.918,93.303 411.228,94.354C409.075,95.387 406.781,96.659 404.519,97.54C402.501,98.585 400.123,98.674 398.031,97.788C402.24,99.941 400.168,105.972 398.745,107.938L401.366,106.345L404.089,104.719L407.227,103.011C411.526,100.683 416.026,98.384 416.026,98.384C414.678,103.604 415.028,105.736 416.047,107.198C417.576,108.727 418.928,110.422 420.076,112.256C421.234,101.562 424.834,98.844 429.289,98.247C430.425,98.107 431.571,98.057 432.715,98.1C433.869,98.176 435.036,98.289 436.194,98.351L436.194,98.348C438.463,98.603 440.76,98.239 442.839,97.299C442.154,100.541 440.677,103.564 438.541,106.097C436.482,108.338 433.051,108.633 430.64,106.778C431.512,111.256 432.961,112.178 434.818,111.315L434.816,111.315C437.297,109.623 439.469,107.522 441.244,105.102C443.127,102.578 445.413,100.38 448.008,98.594C450.04,97.556 451.749,98.175 452.583,102.108C450.721,101.6 450.104,100.21 448.18,103.379L448.18,103.382C451.12,101.451 455.017,101.871 457.48,104.384C458.635,105.426 459.399,106.83 459.645,108.366C459.876,109.862 459.377,111.376 458.3,112.44L456.525,111.842L456.525,111.844C459.64,113.929 462.991,115.645 466.505,116.951C467.486,117.301 468.46,117.705 469.452,118.081C470.447,118.452 471.463,118.797 472.494,119.109C474.559,119.74 476.667,120.22 478.804,120.546C479.874,120.697 480.938,120.818 481.971,120.95L481.971,120.948C483.003,121.061 484.041,121.12 485.081,121.127C487.113,121.146 489.138,120.91 491.112,120.418C493.064,119.927 494.926,119.123 496.621,118.034C498.407,116.885 499.965,115.418 501.217,113.702C500.685,114.754 497.58,119.237 494.335,123.824C491.09,128.404 487.675,133.147 486.458,134.555L488.573,132.728C489.92,131.573 491.828,129.977 494.165,128.058C498.828,124.227 505.19,119.196 511.788,114.309C515.07,111.884 518.457,109.405 521.582,107.257C524.725,105.078 527.7,103.076 530.276,101.374C535.428,97.974 538.961,95.771 538.961,95.771L538.963,95.771C532.407,104.678 526.405,113.98 520.983,123.622C514.357,133.954 507.207,142.93 500.661,143.812C501.12,145.669 502.075,147.371 503.424,148.732C505.74,150.33 508.607,150.913 511.362,150.346C512.319,146.22 513.933,142.273 516.145,138.66C518.769,133.792 521.843,129.278 523.434,129.583C522.229,134.354 521.522,139.237 521.321,144.152C521.349,145.414 521.465,146.641 521.477,148.628L521.477,148.626C521.484,151.445 521.302,154.262 520.938,157.058C523.025,152.653 526.088,148.78 529.895,145.733C534.707,141.404 540.1,138.213 541.844,140.154C539.041,142.373 527.775,157.628 524.294,159.587C525.7,158.942 530.843,156.595 536.167,154.373C539.296,153.05 542.355,151.892 544.72,150.984L547.414,149.978L547.414,149.98C544.229,152.128 541.525,154.922 539.481,158.178C536.593,162.189 534.142,166.495 532.171,171.027C533.301,168.889 535.085,170.649 537.073,172.968C539.001,175.347 540.986,178.384 542.929,178.621L543.142,174.917L543.319,171.174L543.317,171.174C545.051,173.941 548.447,175.17 551.552,174.154C553.54,173.783 555.492,173.244 557.39,172.547C559.429,171.848 561.57,171.001 563.74,170.155C567.816,168.378 572.085,167.074 576.459,166.27C578.186,165.819 580.008,165.883 581.701,166.454C583.393,167.026 584.879,168.08 585.978,169.487C580.741,172.098 575.884,175.411 571.546,179.339C566.013,184.181 561.334,189.686 562.301,193.209C565.139,191.846 569.944,189.485 575.868,186.862C581.784,184.241 588.878,181.324 596.032,178.984C602.961,176.616 610.091,174.884 617.335,173.807C620.412,173.355 623.524,173.194 626.632,173.324C629.106,173.419 631.547,173.929 633.854,174.835L631.744,177.956L629.614,181.055L636.03,183.446C637.666,184.044 639.211,184.715 640.391,185.214L642.359,186.051C632.814,187.833 617.077,190.269 602.198,192.966C594.796,194.259 587.264,195.811 580.73,197.104C574.158,198.42 568.488,199.536 564.236,200.212C562.83,207.507 558.531,206.371 563.343,211.699L563.341,211.697C561.967,214.079 559.323,215.433 556.586,215.157C554.767,215.017 553.027,214.346 551.588,213.224L554.651,220.846C555.457,222.703 556.066,224.679 556.57,226.12L557.392,228.526L557.392,228.524C561.625,225.208 567.195,224.133 572.356,225.636C576.816,227.382 581.835,226.95 585.931,224.466L582.443,223.171L578.9,221.885L574.722,220.564C569.048,218.794 563.563,217.246 563.563,217.246L563.561,217.244C570.776,212.111 579.255,209.043 588.082,208.377C590.318,208.188 592.565,208.195 594.8,208.396C596.833,208.55 598.837,208.982 600.754,209.682C604.107,210.738 606.832,213.205 608.212,216.438C604.556,220.191 599.964,222.9 594.912,224.282C590.202,225.899 585.596,227.799 581.117,229.975C582.549,229.715 584.026,229.831 585.399,230.311C586.177,230.552 586.935,230.857 587.666,231.218C588.375,231.582 589.051,232.012 589.684,232.497C592.165,234.373 593.73,236.741 592.458,238.053L587.871,237.597L583.322,237.205C582.537,241.411 587.959,241.487 592.662,242.387L592.662,242.39C594.704,242.529 596.62,243.422 598.041,244.897C599.007,246.284 598.868,248.399 596.661,251.675C596.424,253.001 595.812,254.232 594.895,255.222C593.81,256.72 592.397,258.398 591.142,259.906C588.677,262.907 587.146,265.098 591.121,263.661C613.104,248.884 637.184,237.493 662.553,229.871C662.289,230.665 660.521,236.516 657.966,242.767C657.324,244.334 656.655,245.92 655.913,247.479C655.14,249.051 654.339,250.585 653.523,252.015L653.523,252.017C652.191,254.503 650.546,256.81 648.629,258.883C642.569,262.999 635.357,265.081 628.033,264.829C621.194,264.632 614.444,266.431 608.605,270.002C612.223,269.149 615.995,269.208 619.582,270.177C617.484,274.175 607.759,273.039 611.647,278.576C618.687,276.792 619.37,280.169 619.528,282.154C619.674,284.118 619.318,284.855 624.2,277.777L624.2,277.779C626.4,279.214 627.301,281.986 626.37,284.439C625.346,287.067 625.247,289.962 626.088,292.654C632.512,290.18 639.516,289.634 646.245,291.085C650.005,291.642 653.693,292.604 657.25,293.949C658.744,294.511 660.188,295.206 661.561,296.019C662.627,296.655 663.591,297.444 664.423,298.364C660.828,299.068 657.408,300.481 654.367,302.523C654.719,305.874 654.776,309.249 654.537,312.61C654.23,315.72 653.651,318.617 653.152,321.446C652.623,324.279 652.202,327.042 651.876,329.937L651.878,329.939C651.451,333.004 651.363,336.11 651.619,339.194C649.655,340.517 647.79,341.978 646.036,343.571C643.846,345.419 640.849,345.988 638.134,345.074C640.788,346.721 645.748,348.151 646.268,352.187C640.182,356.318 639.601,354.064 638.696,351.701C637.788,349.297 636.564,346.792 629.165,350.037L629.162,350.037C633.116,350.249 636.753,352.265 639.029,355.505C639.693,356.281 640.332,357.103 640.963,357.944C641.598,358.786 642.22,359.648 642.78,360.501L642.778,360.504C643.874,362.196 645.086,363.812 646.405,365.339C648.707,365.356 650.876,364.254 652.221,362.385C652.944,360.688 652.798,358.745 651.831,357.176C649.522,353.168 646.59,349.554 643.147,346.468C654.628,345.774 666.002,349.016 675.394,355.659C677.268,356.966 679.031,358.426 680.661,360.029C683.852,363.177 686.529,366.806 688.592,370.784C689.689,373.925 689.5,375.834 688.569,376.923L688.566,376.923C687.51,377.956 686.04,378.452 684.572,378.268C681.439,378.192 678.135,376.867 679.345,377.97C678.272,382.538 679.222,387.348 681.954,391.165C684.412,394.452 687.309,397.385 690.568,399.88C693.498,401.974 695.84,404.784 697.374,408.043C697.925,409.652 697.906,411.401 697.322,413.001C696.495,415.249 695.207,417.298 693.543,419.02C688.183,421.426 682.088,421.603 676.598,419.512C672.162,417.657 667.481,416.456 662.7,415.946C662.192,413.911 662.27,411.772 662.929,409.778C663.586,407.786 664.794,406.02 666.415,404.685C669.043,401.726 672.122,399.103 672.245,395.803L669.125,399.526L666.013,403.177C662.567,399.658 660.377,393.22 664.023,390.101L664.023,390.103C661.116,391.857 659.067,394.738 658.361,398.058C657.723,400.145 657.205,402.269 656.813,404.415C656.267,406.708 655.773,409.161 655.272,411.696C654.754,414.228 654.301,416.853 653.655,419.446C652.953,422.031 652.188,424.607 651.304,427.084C650.862,428.32 650.392,429.535 649.886,430.709C649.406,431.879 648.834,433.011 648.18,434.091C646.96,436.18 645.486,438.111 643.793,439.839C646.766,443.563 649.3,449.606 654.324,448.526L654.133,442.965L654.13,442.965C658.06,442.119 662.028,444.22 663.534,447.947C665.422,450.882 666.755,453.517 669.723,450.674C670.266,451.797 670.857,452.957 671.462,454.146C672.044,455.327 672.606,456.528 673.161,457.759L673.161,457.757C674.296,460.186 675.206,462.713 675.879,465.307C676.536,467.782 676.669,470.367 676.269,472.898C675.669,475.536 674.301,477.937 672.334,479.796L665.875,478.497L660.142,477.308C663.784,477.691 668.954,473.011 666.39,469.157C668.383,472.186 662.784,474.604 658.582,477.353L658.582,477.35C656.63,478.326 655.113,479.997 654.331,482.034C653.894,483.823 654.874,485.96 658.341,488.703L663.975,486.954L666.055,486.288L667.823,485.676L669.55,485.069C669.966,486.271 670.519,487.567 671.037,488.885L672.705,492.997L672.705,493C673.903,495.845 674.934,498.759 675.794,501.725C676.189,503.15 676.489,504.601 676.687,506.066C676.891,507.423 676.914,508.801 676.754,510.164C676.498,512.757 675.298,515.163 673.381,516.928C680.178,517.635 680.117,516.909 680.426,516.047C680.736,515.153 681.45,514.18 689.858,513.896C680.067,512.97 682.851,506.998 685.285,501.439C686.625,499.234 687.252,496.67 687.077,494.096C686.566,492.539 684.945,491.608 681.322,491.608C686.023,491.731 690.541,489.788 693.685,486.29C695.074,484.676 696.634,483.216 698.338,481.935C698.849,481.573 699.406,481.216 700.028,480.862C700.626,480.503 701.285,480.148 702.018,479.801L702.015,479.801C703.752,478.995 705.549,478.329 707.39,477.806C703.202,476.781 698.506,478.626 703.155,470.917L703.157,470.917C702.037,470.052 701.013,469.069 700.108,467.982C700.252,467.812 700.415,467.656 700.59,467.514C700.375,467.632 700.158,467.701 699.962,467.824C699.454,467.278 699.328,467.204 699.744,467.944L699.744,467.946C697.483,469.379 694.869,470.154 692.194,470.189C690.317,468.556 688.902,466.46 688.089,464.111C687.692,462.993 687.387,461.844 687.177,460.677C687.068,460.096 686.978,459.509 686.902,458.923L686.647,457.153C686.628,453.018 685.742,448.934 684.045,445.162C687.257,440.934 688.323,448.327 693.442,446.838L690.568,442.7C689.072,440.632 687.54,438.602 687.54,438.602L687.54,438.599C692.026,438.67 696.471,437.76 700.567,435.929C704.327,434.901 707.307,435.222 708.779,441.79L711.44,431.119L711.442,431.117C713.059,429.808 714.481,428.269 715.661,426.553C716.807,424.928 717.731,423.153 718.407,421.281C719.04,419.551 719.369,417.727 719.381,415.886C719.409,414.163 718.991,412.464 718.161,410.953C719.473,408.474 717.209,404.864 715.477,402.614L715.473,402.615ZM38.478,502.658L40.031,499.43C44.781,503.119 41.763,502.831 38.478,502.658ZM229.664,142.913C229.078,144.648 228.055,145.444 225.911,143.206C223.867,137.579 223.973,135.722 225.127,135.44C226.301,135.187 228.551,136.558 230.834,137.248L230.832,137.248C230.55,139.155 230.16,141.048 229.664,142.913ZM374.12,78.559C376.679,77.779 379.442,78.855 380.801,81.161C378.932,84.347 376.677,82.612 374.12,78.559ZM562.22,108.133C563.558,106.248 563.331,104.612 565.073,105.784C564.057,106.486 563.102,107.273 562.22,108.133ZM706.936,421.778C706.799,421.638 706.648,421.515 706.485,421.411C711.365,416.118 709.468,417.973 706.936,421.778Z" style="fill:#417172;fill-opacity:0.85;fill-rule:nonzero;"/>
        </g>
        <g transform="matrix(0.859505,0,0,0.859505,50.9981,50.9964)">
            <path d="M361.554,94.241C361.065,92.426 360.8,90.554 360.767,88.673C359.782,90.502 360.101,92.759 361.554,94.241Z" style="fill:#417172;fill-opacity:0.85;fill-rule:nonzero;"/>
        </g>
        <g transform="matrix(0.859505,0,0,0.859505,50.9981,50.9964)">
            <path d="M132.084,260.144C131.958,260.194 131.947,260.295 131.843,260.357L131.84,260.357C132.327,260.751 132.849,261.101 133.398,261.399L132.084,260.144Z" style="fill:#417172;fill-opacity:0.85;fill-rule:nonzero;"/>
        </g>
        <g transform="matrix(0.859505,0,0,0.859505,50.9981,50.9964)">
            <path d="M604.903,275.287C605.622,273.21 606.912,271.378 608.623,270.003C606.16,270.471 604.513,272.81 604.903,275.287Z" style="fill:#417172;fill-opacity:0.85;fill-rule:nonzero;"/>
        </g>
        <g transform="matrix(0.859505,0,0,0.859505,50.9981,50.9964)">
            <path d="M692.604,498.786C694.556,499.41 697.617,499.387 697.962,500.875L697.997,500.448C698.073,499.649 698.151,498.573 698.184,497.484L698.366,493.164C697.456,497.056 694.915,497.586 692.604,498.786Z" style="fill:#417172;fill-opacity:0.85;fill-rule:nonzero;"/>
        </g>
        <g transform="matrix(0.859505,0,0,0.859505,50.9981,50.9964)">
            <path d="M611.776,530.422C612.272,531.939 610.712,532.251 611.221,533.773L615.337,536.181C617.514,532.397 615.928,527.872 611.776,530.422Z" style="fill:#417172;fill-opacity:0.85;fill-rule:nonzero;"/>
        </g>
        <g transform="matrix(0.859505,0,0,0.859505,50.9981,50.9964)">
            <path d="M664.29,503.898C664.805,501.06 664.578,498.137 663.638,495.41C659.556,493.987 657.744,494.616 656.879,496.275C656.439,497.267 656.184,498.333 656.125,499.418C655.952,500.621 655.848,501.954 655.65,503.289L655.65,503.286C655.721,502.986 655.855,502.705 656.047,502.462C661.177,505.688 663.442,505.628 664.29,503.898Z" style="fill:#417172;fill-opacity:0.85;fill-rule:nonzero;"/>
        </g>
        <g transform="matrix(0.859505,0,0,0.859505,50.9981,50.9964)">
            <path d="M653.521,508.896C657.595,511.566 655.284,507.568 655.407,504.491L655.409,504.491C655.156,506.093 654.509,507.608 653.521,508.896Z" style="fill:#417172;fill-opacity:0.85;fill-rule:nonzero;"/>
        </g>
        <g transform="matrix(0.859505,0,0,0.859505,50.9981,50.9964)">
            <path d="M704.038,444.681C703.374,444.589 702.753,445.029 702.616,445.686C702.275,446.988 702.235,448.351 702.495,449.672C699.685,451.691 712.759,453.99 708.983,454.607C713.905,457.457 711.847,452.184 708.742,448.34L708.739,448.34C707.61,446.645 705.96,445.359 704.038,444.681Z" style="fill:#417172;fill-opacity:0.85;fill-rule:nonzero;"/>
        </g>
        <g transform="matrix(0.859505,0,0,0.859505,50.9981,50.9964)">
            <path d="M646.442,490.474L643.046,487.496L639.634,484.551L636.02,487.798L646.442,490.474Z" style="fill:#417172;fill-opacity:0.85;fill-rule:nonzero;"/>
        </g>
        <g transform="matrix(0.859505,0,0,0.859505,50.9981,50.9964)">
            <path d="M656.667,454.603L651.503,461.169C652.975,461.575 654.072,462.806 654.306,464.314C656.112,459.824 659.725,455.331 656.667,454.603Z" style="fill:#417172;fill-opacity:0.85;fill-rule:nonzero;"/>
        </g>
        <g transform="matrix(0.859505,0,0,0.859505,50.9981,50.9964)">
            <path d="M653.823,470.872C654.509,468.754 654.672,466.502 654.294,464.309C653.091,466.294 652.916,468.735 653.823,470.872Z" style="fill:#417172;fill-opacity:0.85;fill-rule:nonzero;"/>
        </g>
        <g transform="matrix(0.859505,0,0,0.859505,50.9981,50.9964)">
            <path d="M640.09,475.711L642.675,470.923L639.958,473.979C639.275,474.738 638.618,475.501 638.06,476.045L637.162,476.964L638.629,476.345L639.641,475.915L640.09,475.711Z" style="fill:#417172;fill-opacity:0.85;fill-rule:nonzero;"/>
        </g>
        <g transform="matrix(0.859505,0,0,0.859505,50.9981,50.9964)">
            <path d="M671.974,371.524L668.998,362.913C665.359,362.076 663.106,364.373 664.532,367.509C667.063,369.544 668.45,372.758 671.974,371.524Z" style="fill:#417172;fill-opacity:0.85;fill-rule:nonzero;"/>
        </g>
        <g transform="matrix(0.859505,0,0,0.859505,50.9981,50.9964)">
            <path d="M636.581,390.34L638.923,392.394L641.26,394.48L641.258,394.48C643.834,392.975 646.712,392.06 649.686,391.805L636.581,390.34Z" style="fill:#417172;fill-opacity:0.85;fill-rule:nonzero;"/>
        </g>
        <g transform="matrix(0.859505,0,0,0.859505,50.9981,50.9964)">
            <path d="M630.047,370.018C631.85,370.429 633.526,372.554 635.083,373.735C635.683,374.338 636.544,374.605 637.38,374.449C637.846,374.286 638.259,374 638.571,373.617C639.044,373.015 639.429,372.351 639.713,371.639C637.884,371.2 635.277,368.361 633.223,366.899C631.172,365.433 629.666,365.28 630.047,370.018Z" style="fill:#417172;fill-opacity:0.85;fill-rule:nonzero;"/>
        </g>
        <g transform="matrix(0.859505,0,0,0.859505,50.9981,50.9964)">
            <path d="M644.99,248.068L634.528,251.299L635.492,253.161L655.479,244.897L644.99,248.068Z" style="fill:#417172;fill-opacity:0.85;fill-rule:nonzero;"/>
        </g>
        <g transform="matrix(0.859505,0,0,0.859505,50.9981,50.9964)">
            <path d="M549.806,197.496C552.349,196.591 552.431,194.5 552.28,192.564C552.162,190.61 551.959,188.686 554.301,187.975C546.788,187.767 547.317,183.813 538.433,195.192C539.986,204.614 549.668,187.637 549.806,197.496Z" style="fill:#417172;fill-opacity:0.85;fill-rule:nonzero;"/>
        </g>
        <g transform="matrix(0.859505,0,0,0.859505,50.9981,50.9964)">
            <path d="M554.301,187.973C555.721,188.025 557.142,187.957 558.552,187.768C557.134,187.546 555.688,187.614 554.301,187.973Z" style="fill:#417172;fill-opacity:0.85;fill-rule:nonzero;"/>
        </g>
        <g transform="matrix(0.859505,0,0,0.859505,50.9981,50.9964)">
            <path d="M398.665,716.562C398.665,716.562 398.1,717.344 397.526,718.082L396.372,719.58L397.611,720.168C398.358,720.535 399.348,720.965 400.343,721.39L404.346,723.099L401.482,719.835L398.665,716.562Z" style="fill:#417172;fill-opacity:0.85;fill-rule:nonzero;"/>
        </g>
        <g transform="matrix(0.859505,0,0,0.859505,50.9981,50.9964)">
            <path d="M408.079,701.74L411.888,715.111L413.07,708.636L414.176,702.172C412.694,703.009 409.761,704.639 408.079,701.74Z" style="fill:#417172;fill-opacity:0.85;fill-rule:nonzero;"/>
        </g>
        <g transform="matrix(0.859505,0,0,0.859505,50.9981,50.9964)">
            <path d="M249.308,150.125L252.766,152.767L256.164,155.435L255.065,152.282C252.834,149.369 251.669,149.64 249.308,150.125Z" style="fill:#417172;fill-opacity:0.85;fill-rule:nonzero;"/>
        </g>
        <g transform="matrix(0.859505,0,0,0.859505,50.9981,50.9964)">
            <path d="M186.273,175.553L195.2,183.898L196.256,183.316L191.286,179.417L186.273,175.553Z" style="fill:#417172;fill-opacity:0.85;fill-rule:nonzero;"/>
        </g>
        <g transform="matrix(0.859505,0,0,0.859505,50.9981,50.9964)">
            <path d="M170.471,235.889C171.218,234.916 171.655,233.741 171.726,232.515C171.844,231.86 172.012,231.215 172.231,230.589C170.409,231.305 168.441,231.555 166.498,231.319C164.336,231.338 163.908,231.737 170.471,235.889Z" style="fill:#417172;fill-opacity:0.85;fill-rule:nonzero;"/>
        </g>
    </g>
</svg>
