<?xml version="1.0" encoding="UTF-8"?>
<svg width="1200pt" height="1200pt" version="1.1" viewBox="0 0 1200 1200" xmlns="http://www.w3.org/2000/svg">
 <path d="m1162.5 481.88c-3.75 48.75-58.125 90-93.75 108.75-3.75 1.875-7.5 3.75-9.375 5.625-20.625 9.375-15 26.25-15 35.625 5.625 71.25-11.25 133.12-35.625 187.5-3.75 7.5-7.5 13.125-9.375 18.75-31.875 58.125-76.875 103.12-88.125 112.5-30 30-65.625 54.375-103.12 75-11.25 5.625-22.5 11.25-35.625 16.875-3.75 1.875-5.625 3.75-7.5 3.75-5.625 5.625-3.75 9.375-3.75 9.375s1.875 7.5 18.75 1.875c5.625-1.875 11.25-3.75 15-7.5 37.5-16.875 71.25-39.375 101.25-63.75 5.625-5.625 20.625-13.125 26.25-5.625 9.375 11.25-1.875 20.625-7.5 26.25-31.875 26.25-69.375 50.625-108.75 69.375-7.5 3.75-13.125 5.625-20.625 9.375s-5.625 9.375-5.625 9.375l1.875 3.75s3.75 5.625-5.625 11.25c-11.25 5.625-22.5 9.375-35.625 13.125-22.5 7.5-46.875 13.125-69.375 15-18.75 1.875-22.5-15-24.375-16.875-9.375-24.375-31.875-22.5-63.75-20.625-28.125 0-58.125-1.875-86.25-7.5-50.625-5.625-99.375-16.875-144.38-35.625-30-11.25-26.25 0-7.5 11.25 43.125 20.625 88.125 37.5 135 46.875 1.875 0 16.875 3.75 16.875 13.125s-7.5 9.375-13.125 7.5c-75-15-146.25-43.125-210-86.25-3.75-1.875-24.375-16.875-28.125-20.625-88.125-69.375-157.5-165-191.25-281.25-9.375-31.875-15-65.625-18.75-97.5-7.5-73.125 0-146.25 18.75-215.62 15-37.5 28.125-69.375 39.375-97.5 22.5-50.625 43.125-82.5 45-88.125 9.375-45-24.375-63.75-73.125-75s-35.625-43.125 46.875-54.375c33.75-5.625 114.38-1.875 153.75 1.875 35.625 3.75 60-7.5 69.375-13.125 65.625-31.875 138.75-48.75 217.5-48.75 106.88 0 206.25 31.875 288.75 88.125 71.25 48.75 75 106.88 90 129.38 15 20.625 18.75 22.5 26.25 31.875 26.25 33.75 9.375 41.25 3.75 45-11.25 5.625-33.75-9.375-65.625-35.625-20.625-16.875-43.125-35.625-97.5-20.625-41.25 11.25-76.875 16.875-97.5 18.75-11.25 1.875-26.25 9.375-30 13.125-73.125 67.5-127.5 75-153.75 78.75-16.875 1.875-18.75-16.875-11.25-28.125 16.875-24.375 31.875-37.5 37.5-61.875 5.625-22.5-9.375-15-15-15-20.625 1.875-35.625-7.5-43.125-7.5-9.375 0-13.125-5.625-22.5-7.5s-18.75-1.875-26.25 1.875c-7.5 1.875-18.75 11.25-26.25 11.25-11.25 0-7.5-9.375-20.625-5.625s-28.125 39.375-39.375 33.75c-9.375-7.5 9.375-31.875 7.5-46.875-18.75 0-22.5 31.875-31.875 41.25-7.5 9.375-13.125 3.75-22.5 7.5-7.5 3.75-7.5 15-13.125 20.625-11.25 15-26.25 5.625-37.5 18.75s-11.25 31.875-18.75 46.875c-24.375 30-33.75 58.125-37.5 69.375 1.875 7.5 5.625 13.125 13.125-1.875 3.75-7.5 3.75-16.875 5.625-24.375 3.75-9.375 11.25-9.375 18.75-15 9.375-3.75 18.75-9.375 24.375-16.875 7.5-7.5 11.25-15 18.75-20.625 7.5-3.75 26.25-15 33.75-5.625 3.75 5.625-5.625 20.625-9.375 24.375-5.625 5.625-16.875 7.5-24.375 13.125-9.375 7.5-15 16.875-22.5 26.25-9.375 11.25-18.75 22.5-24.375 35.625-5.625 11.25 0 24.375-3.75 35.625-5.625 13.125-18.75 20.625-26.25 33.75-22.5 39.375 0 73.125 1.875 80.625 11.25 33.75 0 73.125 31.875 97.5 33.75 26.25 50.625 60 80.625 88.125 15 13.125 35.625 33.75 58.125 43.125 7.5 1.875 24.375 13.125 18.75-16.875-5.625-28.125-16.875-71.25 15-54.375 33.75 16.875 22.5 88.125 45 116.25 18.75 24.375 63.75 48.75 93.75 43.125 15-3.75 30-11.25 45-15 16.875-3.75 33.75-9.375 50.625-16.875 20.625-9.375 30-20.625 45-35.625s33.75-13.125 52.5-22.5c13.125-7.5 28.125-24.375 13.125-37.5-5.625-5.625-20.625 1.875-22.5-9.375-1.875-7.5 13.125-15 18.75-18.75 11.25-7.5 33.75-5.625 60-11.25 46.875-9.375 73.125-26.25 84.375-37.5 58.125-56.25 80.625-118.12 86.25-150 3.75-22.5-5.625-33.75-9.375-37.5-48.75-63.75-37.5-110.62-26.25-131.25 3.75-7.5 11.25 0 13.125 5.625 13.125 30 45 50.625 65.625 46.875 20.625-5.625 18.75-7.5 33.75 0 3.75 1.875 5.625 3.75 11.25 5.625 20.625 11.25 58.125-11.25 76.875-28.125 18.75-11.25 18.75 0 18.75 5.625zm-67.5-15c5.625 0 11.25-5.625 11.25-11.25s-5.625-11.25-11.25-11.25-11.25 5.625-11.25 11.25 5.625 11.25 11.25 11.25zm-15 155.62c-9.375 0-15 7.5-15 15 0 9.375 7.5 15 15 15 9.375 0 15-7.5 15-15s-7.5-15-15-15zm-735-247.5c-9.375 0-16.875 7.5-16.875 16.875s7.5 16.875 16.875 16.875 16.875-7.5 16.875-16.875c0-11.25-7.5-16.875-16.875-16.875zm0 431.25c-7.5 0-15 5.625-15 15 0 7.5 5.625 15 15 15 7.5 0 15-5.625 15-15s-7.5-15-15-15zm592.5-174.38c13.125 0 24.375-11.25 24.375-24.375s-11.25-24.375-24.375-24.375-24.375 11.25-24.375 24.375 11.25 24.375 24.375 24.375zm-247.5 198.75c0 7.5 5.625 15 15 15 7.5 0 15-5.625 15-15 0-7.5-5.625-15-15-15s-15 7.5-15 15zm309.38-382.5c11.25 0 20.625-9.375 20.625-20.625s-9.375-20.625-20.625-20.625-20.625 9.375-20.625 20.625 9.375 20.625 20.625 20.625zm-472.5 667.5c-5.625 0-11.25 5.625-11.25 11.25s5.625 11.25 11.25 11.25 11.25-5.625 11.25-11.25c1.875-5.625-3.75-11.25-11.25-11.25zm420-168.75c-9.375 0-16.875 7.5-16.875 16.875s7.5 16.875 16.875 16.875 16.875-7.5 16.875-16.875-9.375-16.875-16.875-16.875z"/>
</svg>
