<?xml version="1.0" encoding="UTF-8" standalone="no"?>
<!DOCTYPE svg PUBLIC "-//W3C//DTD SVG 1.1//EN" "http://www.w3.org/Graphics/SVG/1.1/DTD/svg11.dtd">
<svg width="100%" height="100%" viewBox="0 0 1000 1000" version="1.1" xmlns="http://www.w3.org/2000/svg" xmlns:xlink="http://www.w3.org/1999/xlink" xml:space="preserve" xmlns:serif="http://www.serif.com/" style="fill-rule:evenodd;clip-rule:evenodd;stroke-linejoin:round;stroke-miterlimit:2;">
    <g transform="matrix(1,0,0,1,-86,-106)">
        <path d="M798.27,949.57C865.227,906.797 868.946,910.504 833.61,936.55C798.27,962.573 861.508,925.39 828.036,949.57L813.157,964.449C813.157,964.449 788.977,992.347 772.235,994.203C755.493,996.059 790.821,992.348 766.653,1003.52C742.473,1014.66 565.573,1094.48 279.353,886.336C359.345,1020.25 500.683,1079.77 619.723,1081.63C619.723,1081.63 582.508,1081.63 602.981,1085.34C623.442,1089.06 593.676,1116.95 418.841,1051.87C426.302,1068.6 428.153,1074.18 448.614,1085.34C448.614,1085.34 219.834,1007.22 139.874,776.604C141.729,804.491 143.581,836.124 143.581,836.124C143.581,836.124 28.261,631.524 165.909,378.584C303.539,125.644 606.709,116.354 647.619,118.204C688.541,120.06 917.289,172.138 969.369,226.084C1021.46,280.01 943.346,244.682 943.346,244.682C943.346,244.682 917.291,259.557 960.088,281.862C1002.85,304.198 1049.35,378.585 1014,350.686C978.674,322.795 1030.74,384.17 1036.33,387.889C1041.9,391.608 958.213,350.686 980.537,374.866C1002.85,399.034 1099.57,505.066 1067.95,536.686C1036.33,568.295 1025.16,480.877 1019.59,475.303C1014,469.71 1028.91,603.633 1019.59,625.933C1010.28,648.261 1012.15,575.738 993.561,553.413C974.967,531.097 969.37,532.952 956.35,532.952C943.346,532.952 908.01,497.624 904.28,477.151C900.561,456.69 889.401,451.108 872.651,434.378C855.921,417.636 829.885,400.901 798.264,402.757C766.647,404.625 783.389,365.554 729.444,365.554C675.51,365.554 643.882,356.273 597.394,376.722C550.91,397.183 465.344,421.355 457.894,423.21C450.452,425.074 536.007,376.722 549.042,369.272C562.054,361.847 346.302,417.635 310.972,503.182C275.62,588.756 244.023,735.672 364.913,869.572C485.803,1003.5 701.543,1016.51 798.263,949.56" style="fill:#417172;"/>
    </g>
</svg>
