<?xml version="1.0" encoding="UTF-8" standalone="no"?>
<!DOCTYPE svg PUBLIC "-//W3C//DTD SVG 1.1//EN" "http://www.w3.org/Graphics/SVG/1.1/DTD/svg11.dtd">
<svg width="100%" height="100%" viewBox="0 0 1200 1200" version="1.1" xmlns="http://www.w3.org/2000/svg" xmlns:xlink="http://www.w3.org/1999/xlink" xml:space="preserve" xmlns:serif="http://www.serif.com/" style="fill-rule:evenodd;clip-rule:evenodd;stroke-linejoin:round;stroke-miterlimit:2;">
    <g>
        <path d="M599.9,359.35C636.701,359.299 666.099,329.85 665.752,293.401C665.4,257.753 636.15,228.799 600.502,228.85C563.65,228.901 534.4,258.202 534.65,294.799C534.9,330.197 564.451,359.447 599.9,359.35Z" style="fill:white;fill-rule:nonzero;"/>
        <path d="M204.3,765.05L240.999,765.05C252.147,765.05 261.55,759.351 267.749,751.05L363.147,751.05C358.596,766.402 354.198,781.152 350.045,795.101C324.397,880.703 298.943,966.351 273.596,1052.05C265.346,1080.1 275.994,1104.8 300.596,1118.35L282.397,1172.35C278.897,1182.8 284.499,1194.15 294.948,1197.65C297.096,1198.4 299.249,1198.7 301.346,1198.7C309.698,1198.7 317.494,1193.45 320.295,1185.1L338.943,1129.65C369.142,1132.25 391.693,1117.15 400.841,1086.51L501.541,751.055L569.689,751.055L569.689,776.356C569.689,793.004 583.24,806.504 599.888,806.504C616.536,806.504 630.087,792.953 630.087,776.356L630.087,751.055L698.536,751.055L707.435,780.754C738.083,883.004 768.787,985.204 799.833,1087.3C803.583,1099.7 811.935,1111.8 822.032,1119.66C832.032,1127.46 844.583,1130.8 857.481,1130.8C860.43,1130.8 863.332,1129.7 866.282,1129.36L885.032,1185.05C887.832,1193.4 895.634,1198.66 903.981,1198.66C906.082,1198.66 908.231,1198.36 910.379,1197.61C920.828,1194.11 926.43,1182.75 922.93,1172.25L904.032,1116.11C904.634,1115.71 905.384,1115.55 905.981,1115.16C927.629,1099.41 934.032,1076.21 925.083,1046.16L837.083,751.056L932.083,751.056C938.282,759.356 947.685,765.056 958.833,765.056L995.532,765.056C1014.28,765.056 1029.53,749.857 1029.53,731.056C1029.53,712.306 1014.33,697.056 995.532,697.056L958.833,697.056C947.685,697.056 938.282,702.755 932.083,711.056L825.133,711.056C784.883,576.106 747.133,449.356 735.184,409.556C762.485,377.556 777.485,337.357 777.684,294.806C778.083,203.056 708.684,127.856 619.884,118.006L619.896,21.354C619.896,10.303 610.896,1.354 599.896,1.354C588.896,1.354 579.896,10.303 579.896,21.354L579.896,118.155C492.197,128.553 423.296,202.503 422.596,293.255C422.295,337.153 438.096,377.607 464.494,408.805C446.892,467.606 425.943,538.905 405.096,609.405C394.846,644.053 384.698,678.405 375.045,711.055L267.795,711.055C261.596,702.805 252.193,697.055 241.045,697.055L204.295,697.055C185.545,697.055 170.295,712.254 170.295,731.055C170.346,749.805 185.545,765.055 204.295,765.055L204.3,765.05ZM630.15,711.05L630.15,685.749C630.15,669.101 616.599,655.601 599.951,655.601C583.303,655.601 569.752,669.152 569.752,685.749L569.752,711.05L513.604,711.05L585.502,471.45C589.854,471.802 594.252,472.001 598.701,472.052C604.349,471.95 609.4,471.95 614.599,471.501L686.548,711.051L630.15,711.05ZM793.3,743.8L886.851,1057.55C892.249,1075.75 887.101,1079.5 882.55,1082.85C869.902,1092.05 852.198,1092.3 846.698,1088.1C843.147,1085.3 839.499,1080.1 838.198,1075.65C807.147,973.602 776.499,871.452 745.846,769.252L654.096,463.802C671.346,458.302 687.647,450.2 702.545,439.603C719.248,495.298 755.697,617.803 793.299,743.803L793.3,743.8ZM462.65,293.55C463.201,217.601 525.099,156.05 600.75,156.05L601.449,156.05C677,156.402 738.149,218.55 737.849,294.6C737.701,330.549 723.997,364.299 699.15,390.049C698.849,390.35 696.65,392.549 696.65,392.549C677.002,411.947 652.65,424.697 626.252,429.697C625.701,429.748 625.201,429.845 624.701,429.998C616.35,431.447 607.752,432.299 599.252,432.099C523.354,431.349 462.052,369.197 462.652,293.549L462.65,293.55ZM497.252,439C512.002,449.551 528.502,457.898 546.201,463.602L362.651,1075.05C358.651,1088.6 352.901,1092.05 339.901,1090.15C336.753,1089.65 333.549,1089.01 330.299,1088.05C327.299,1087.2 324.499,1086.15 321.698,1084.9C311.698,1080.35 308.897,1074.15 312.096,1063.45C337.448,977.807 362.948,892.205 388.448,806.605C404.55,752.753 423.897,687.105 443.499,620.755C462.104,557.607 480.901,493.805 497.253,439.005L497.252,439Z" style="fill:white;fill-rule:nonzero;"/>
    </g>
</svg>
