<?xml version="1.0" encoding="UTF-8" standalone="no"?>
<!DOCTYPE svg PUBLIC "-//W3C//DTD SVG 1.1//EN" "http://www.w3.org/Graphics/SVG/1.1/DTD/svg11.dtd">
<svg width="100%" height="100%" viewBox="0 0 1200 1200" version="1.1" xmlns="http://www.w3.org/2000/svg" xmlns:xlink="http://www.w3.org/1999/xlink" xml:space="preserve" xmlns:serif="http://www.serif.com/" style="fill-rule:evenodd;clip-rule:evenodd;stroke-linejoin:round;stroke-miterlimit:2;">
    <g>
        <path d="M1092,302.37C1092.2,298.948 1090.93,295.608 1088.51,293.194L1015.41,220.092C1010.94,215.627 1003.76,215.393 998.988,219.577L755.008,434.747C744.871,403.349 728.524,379.669 706.352,364.048L886.732,195.158C889.111,192.943 890.482,189.849 890.529,186.591C890.576,183.333 889.298,180.193 887.001,177.896L830.939,122.068C828.619,119.771 825.432,118.681 822.209,118.576C818.951,118.646 815.857,120.04 813.643,122.443L633.413,317.893C588.921,286.635 529.073,273.713 480.703,286.057C444.445,295.315 416.754,317.452 400.043,350.358C366.695,341.709 339.082,344.018 317.84,357.284C296.09,370.854 281.289,395.768 273.742,431.464C244.855,424.561 220.91,426.682 202.433,437.768C182.785,449.573 169.679,471.401 163.339,502.487C127.206,548.788 108.027,601.565 108.027,655.377C108.027,743.275 158.613,825.967 247.067,883.817C242.285,895.848 239.789,908.286 239.789,920.95C239.789,1010.94 360.919,1081.44 515.549,1081.44C670.299,1081.44 791.529,1010.94 791.529,920.95C791.529,907.544 788.771,894.512 783.51,882.052C870.276,824.368 919.91,742.302 919.91,655.382C919.91,600.409 899.93,546.452 862.254,499.542C860.711,497.546 859.055,495.546 857.398,493.55L1087.48,311.09C1090.16,308.965 1091.81,305.789 1092,302.379L1092,302.37ZM822.83,147.87L861.256,186.132L684.256,351.862C677.928,349.116 671.256,346.667 663.901,344.881C660.401,340.784 656.456,336.807 652.245,332.869L822.83,147.87ZM214.79,458.35C229.833,449.303 251.645,449.186 279.614,457.987C282.962,459.006 286.579,458.573 289.563,456.721C292.536,454.87 294.548,451.799 295.079,448.342C300.473,412.74 312.411,388.963 330.544,377.643C347.692,366.944 372.075,366.452 403.021,376.178C408.919,378.042 415.294,375.077 417.693,369.346C430.658,338.291 454.502,317.526 486.646,309.311C531.408,297.873 588.066,311.456 627.556,343.073C635.712,349.683 642.357,356.257 647.888,363.182C649.622,365.339 652.048,366.839 654.767,367.425C664.704,369.534 673.517,372.639 681.24,376.788C707.806,390.179 725.388,415.038 735.084,452.331L575.214,593.311C555.062,595.284 534.28,596.37 513.288,596.37C389.038,596.37 270.958,562.222 187.838,502.468C192.99,480.823 202.045,465.999 214.791,458.347L214.79,458.35ZM515.55,1057.44C376.73,1057.44 263.79,996.21 263.79,920.95C263.79,912.743 265.267,904.634 267.946,896.684C272.938,899.543 277.724,902.18 282.223,904.485C350.696,939.817 430.833,958.485 513.963,958.485C544.158,958.485 574.162,956.036 603.154,951.208C603.471,951.184 603.787,951.137 604.103,951.09C655.13,942.465 703.24,926.563 747.243,903.723C753.064,900.591 758.141,897.766 762.817,895.059C765.868,903.446 767.528,912.098 767.528,920.95C767.532,996.208 654.488,1057.44 515.548,1057.44L515.55,1057.44ZM414.1,832.52C414.319,832.692 414.584,832.723 414.811,832.879C415.034,833.036 415.162,833.27 415.401,833.411C415.885,833.7 416.428,833.735 416.932,833.946C417.674,834.258 418.385,834.567 419.159,834.723C419.928,834.879 420.67,834.891 421.448,834.895C422.213,834.899 422.948,834.903 423.702,834.762C424.459,834.622 425.151,834.352 425.87,834.067C426.581,833.79 427.26,833.516 427.916,833.098C428.6,832.665 429.163,832.106 429.756,831.528C430.139,831.157 430.616,830.938 430.955,830.508C431.123,830.294 431.159,830.032 431.307,829.809C431.467,829.579 431.705,829.45 431.85,829.208C449.217,799.911 479.92,782.427 513.967,782.427C547.733,782.427 579.268,800.579 596.264,829.806C596.459,830.142 596.741,830.392 596.963,830.704C597.077,830.864 597.1,831.056 597.221,831.212C597.334,831.356 597.506,831.415 597.623,831.556C598.553,832.634 599.588,833.579 600.791,834.247C600.92,834.317 601.061,834.341 601.19,834.407C602.284,834.966 603.452,835.313 604.663,835.517C605.038,835.579 605.393,835.634 605.772,835.661C606.065,835.684 606.35,835.774 606.647,835.774C607.686,835.774 608.729,835.634 609.756,835.356C609.866,835.325 609.963,835.255 610.077,835.224C610.963,834.958 611.838,834.63 612.674,834.145C612.936,833.993 613.077,833.739 613.323,833.571C613.565,833.407 613.85,833.368 614.081,833.185C626.538,823.341 641.714,818.138 657.944,818.138C695.815,818.138 726.854,847.615 729.53,885.56C689.831,905.337 646.651,919.505 600.82,927.31C600.515,927.333 600.21,927.38 599.906,927.427C571.996,932.114 543.086,934.493 513.972,934.493C437.234,934.493 363.392,917.731 299.702,886.243C301.674,848.372 333.011,818.138 371.358,818.138C387.128,818.13 402.315,823.24 414.1,832.521L414.1,832.52ZM761.82,867.629C758.789,869.547 755.601,871.465 752.25,873.43C744.371,828.457 705.129,794.129 657.934,794.129C640.934,794.129 624.36,798.84 609.942,807.262C587.657,776.926 552.012,758.422 513.962,758.422C475.567,758.422 440.696,776.317 418.243,806.652C404.247,798.613 388.059,794.129 371.345,794.129C323.907,794.129 284.517,828.813 276.923,874.129C274.157,872.516 271.458,870.965 268.485,869.152C181.758,815.621 132.025,737.702 132.025,655.382C132.025,609.601 147.709,564.511 177.15,524.172C264.091,585.379 385.7,620.375 513.29,620.375C524.079,620.375 534.81,620.071 545.458,619.563L514.04,647.27C511.556,649.461 510.091,652.578 509.985,655.895C509.88,659.199 511.153,662.41 513.497,664.754L562.556,713.82C564.884,716.152 567.958,717.336 571.044,717.336C573.662,717.336 576.302,716.48 578.498,714.734L753.798,575.714C789.157,561.37 821.368,543.718 850.079,523.386C879.977,563.96 895.911,609.335 895.911,655.386C895.915,736.839 847.059,814.196 761.831,867.636L761.82,867.629ZM571.96,689.289L539.495,656.816L1006.4,245.026L1062.01,300.643L571.96,689.289Z" style="fill:white;fill-rule:nonzero;"/>
        <path d="M432.32,445.42C409.179,444.904 377.187,448.947 366.039,488.732C364.25,495.107 367.973,501.728 374.355,503.521C375.437,503.826 376.527,503.966 377.602,503.966C382.844,503.966 387.667,500.498 389.149,495.201C394.629,475.642 405.754,468.74 431.84,469.42C438.675,469.396 443.945,464.287 444.078,457.666C444.206,451.033 438.949,445.561 432.32,445.42L432.32,445.42Z" style="fill:white;fill-rule:nonzero;"/>
        <path d="M525.09,403.95C529.672,408.778 537.266,408.942 542.059,404.36C546.856,399.79 547.04,392.196 542.469,387.403C532.661,377.102 511.653,363.227 481.18,386.067C475.879,390.04 474.797,397.563 478.77,402.872C481.125,406.013 484.727,407.677 488.383,407.677C490.887,407.677 493.403,406.892 495.567,405.286C512.145,392.876 519.508,398.079 525.09,403.95L525.09,403.95Z" style="fill:white;fill-rule:nonzero;"/>
        <path d="M588.59,478.29C603.172,473.192 614.039,472.606 619.203,476.556C624.301,480.47 626.48,490.923 625.332,505.97C624.828,512.579 629.773,518.345 636.383,518.849C636.699,518.872 637.004,518.884 637.309,518.884C643.52,518.884 648.782,514.091 649.262,507.798C651.09,483.716 645.898,466.806 633.828,457.536C621.512,448.055 604.125,447.434 580.68,455.626C574.422,457.817 571.125,464.661 573.301,470.919C575.488,477.165 582.324,480.481 588.59,478.29L588.59,478.29Z" style="fill:white;fill-rule:nonzero;"/>
    </g>
</svg>
